<?xml version="1.0" encoding="UTF-8"?>
<svg width="736px" height="255px" viewBox="0 0 736 255" version="1.1" xmlns="http://www.w3.org/2000/svg" xmlns:xlink="http://www.w3.org/1999/xlink">
    <!-- Generator: Sketch 60.1 (88133) - https://sketch.com -->
    <title>bluedocs</title>
    <desc>Created with Sketch.</desc>
    <defs>
        <linearGradient x1="50%" y1="2.83824061%" x2="50%" y2="100%" id="linearGradient-1">
            <stop stop-color="#174697" offset="0%"></stop>
            <stop stop-color="#0C2550" offset="100%"></stop>
        </linearGradient>
        <path d="M46.1499336,-1.86451255e-15 L153.850066,1.86451255e-15 C169.897404,-1.08333549e-15 175.716556,1.670861 181.583223,4.80838867 C187.449889,7.94591634 192.054084,12.5501107 195.191611,18.4167773 C198.329139,24.283444 200,30.1025963 200,46.1499336 L200,149.850066 C200,165.897404 198.329139,171.716556 195.191611,177.583223 C192.054084,183.449889 187.449889,188.054084 181.583223,191.191611 C175.716556,194.329139 169.897404,196 153.850066,196 L46.1499336,196 C30.1025963,196 24.283444,194.329139 18.4167773,191.191611 C12.5501107,188.054084 7.94591634,183.449889 4.80838867,177.583223 C1.670861,171.716556 7.22223659e-16,165.897404 -1.24300837e-15,149.850066 L1.24300837e-15,46.1499336 C-7.22223659e-16,30.1025963 1.670861,24.283444 4.80838867,18.4167773 C7.94591634,12.5501107 12.5501107,7.94591634 18.4167773,4.80838867 C24.283444,1.670861 30.1025963,1.08333549e-15 46.1499336,-1.86451255e-15 Z" id="path-2"></path>
        <filter x="-15.0%" y="-15.3%" width="130.0%" height="130.6%" filterUnits="objectBoundingBox" id="filter-3">
            <feOffset dx="0" dy="0" in="SourceAlpha" result="shadowOffsetOuter1"></feOffset>
            <feGaussianBlur stdDeviation="10" in="shadowOffsetOuter1" result="shadowBlurOuter1"></feGaussianBlur>
            <feColorMatrix values="0 0 0 0 0   0 0 0 0 0   0 0 0 0 0  0 0 0 0.348639642 0" type="matrix" in="shadowBlurOuter1"></feColorMatrix>
        </filter>
        <linearGradient x1="50%" y1="0%" x2="50%" y2="97.8843027%" id="linearGradient-4">
            <stop stop-color="#3F78DC" offset="0%"></stop>
            <stop stop-color="#2F5FB3" offset="100%"></stop>
        </linearGradient>
        <linearGradient x1="50%" y1="2.72534321%" x2="50%" y2="100%" id="linearGradient-5">
            <stop stop-color="#8BD7F9" offset="0%"></stop>
            <stop stop-color="#68BBE1" offset="100%"></stop>
        </linearGradient>
    </defs>
    <g id="bluedocs" stroke="none" stroke-width="1" fill="none" fill-rule="evenodd">
        <g id="Group-2" transform="translate(24.000000, 24.000000)">
            <g id="Group">
                <g id="Rectangle-Copy">
                    <use fill="black" fill-opacity="1" filter="url(#filter-3)" xlink:href="#path-2"></use>
                    <use fill="url(#linearGradient-1)" fill-rule="evenodd" xlink:href="#path-2"></use>
                </g>
                <path d="M43.5860484,46 L156.413952,46 C171.56977,46 177.065636,47.5780354 182.606377,50.541256 C188.147118,53.5044765 192.495523,57.8528823 195.458744,63.393623 C198.421965,68.9343638 200,74.4302298 200,89.5860484 L200,150.413952 C200,165.56977 198.421965,171.065636 195.458744,176.606377 C192.495523,182.147118 188.147118,186.495523 182.606377,189.458744 C177.065636,192.421965 171.56977,194 156.413952,194 L43.5860484,194 C28.4302298,194 22.9343638,192.421965 17.393623,189.458744 C11.8528823,186.495523 7.50447654,182.147118 4.54125596,176.606377 C1.57803539,171.065636 4.89727412e-15,165.56977 -8.42862546e-15,150.413952 L1.17395235e-15,89.5860484 C-6.82100122e-16,74.4302298 1.57803539,68.9343638 4.54125596,63.393623 C7.50447654,57.8528823 11.8528823,53.5044765 17.393623,50.541256 C22.9343638,47.5780354 28.4302298,46 43.5860484,46 Z" id="Rectangle-Copy-2" fill="url(#linearGradient-4)"></path>
                <path d="M43.2362223,95 L156.763778,95 C171.499805,95 177.065636,96.5780354 182.606377,99.541256 C188.147118,102.504477 192.495523,106.852882 195.458744,112.393623 C198.421965,117.934364 200,123.500195 200,138.236222 L200,156.763778 C200,171.499805 198.421965,177.065636 195.458744,182.606377 C192.495523,188.147118 188.147118,192.495523 182.606377,195.458744 C177.065636,198.421965 171.499805,200 156.763778,200 L43.2362223,200 C28.500195,200 22.9343638,198.421965 17.393623,195.458744 C11.8528823,192.495523 7.50447654,188.147118 4.54125596,182.606377 C1.57803539,177.065636 4.83575653e-15,171.499805 -8.1210375e-15,156.763778 L1.13111101e-15,138.236222 C-6.73531854e-16,123.500195 1.57803539,117.934364 4.54125596,112.393623 C7.50447654,106.852882 11.8528823,102.504477 17.393623,99.541256 C22.9343638,96.5780354 28.500195,95 43.2362223,95 Z" id="Rectangle-Copy-3" fill="url(#linearGradient-5)"></path>
            </g>
            <path d="M298.04,167 C310.2,167 320.68093,165.676584 329.482791,163.029753 C338.284651,160.382921 345.76093,156.236218 351.911628,150.589645 C358.062326,144.943071 362.781395,137.655461 366.068837,128.726816 C369.356279,119.798171 371,109.052035 371,96.488408 C371,85.6187532 369.48,76.0548686 366.44,67.7967543 C363.4,59.5386399 358.963721,52.6039413 353.131163,46.9926584 C347.298605,41.3813756 340.122791,37.1464451 331.603721,34.2878671 C323.084651,31.429289 312.709767,30 300.47907,30 L300.47907,30 L265.271628,30 C262.938605,30 260.976744,30.6881762 259.386047,32.0645286 C257.795349,33.440881 257,35.681865 257,38.7874807 L257,38.7874807 L257,158.212519 C257,161.318135 257.795349,163.559119 259.386047,164.935471 C260.976744,166.311824 262.938605,167 265.271628,167 L265.271628,167 L298.04,167 Z M299.434381,145 L285,145 L285,52 L299.012939,52 C307.512015,52 314.378004,53.1448864 319.610906,55.4346591 C324.843808,57.7244318 329.128466,60.9125 332.46488,64.9988636 C335.801294,69.0852273 338.224584,73.9113636 339.73475,79.4772727 C341.244917,85.0431818 342,91.0670455 342,97.5488636 C342,105.439773 341.139556,112.344318 339.418669,118.2625 C337.697782,124.180682 335.098891,129.130114 331.621996,133.110795 C328.145102,137.091477 323.807763,140.068182 318.609982,142.040909 C313.4122,144.013636 307.020333,145 299.434381,145 L299.434381,145 Z M434.337866,170 C443.001046,170 450.572524,168.700464 457.052301,166.101392 C463.532078,163.502319 468.920153,159.814447 473.216527,155.037773 C477.512901,150.2611 480.717573,144.571239 482.830544,137.968191 C484.943515,131.365142 486,124.059642 486,116.05169 C486,107.692512 485.013947,100.281643 483.041841,93.8190855 C481.069735,87.3565275 478.058752,81.9125249 474.008891,77.4870775 C469.959031,73.0616302 464.835077,69.7074221 458.637029,67.4244533 C452.438982,65.1414844 445.114017,64 436.662134,64 C427.998954,64 420.445084,65.2995361 414.000523,67.8986083 C407.555962,70.4976806 402.185495,74.167992 397.889121,78.9095427 C393.592748,83.6510934 390.370467,89.3409543 388.22228,95.9791252 C386.074093,102.617296 385,109.940358 385,117.94831 C385,126.237243 385.986053,133.612989 387.958159,140.075547 C389.930265,146.538105 392.958856,151.982107 397.043933,156.407555 C401.12901,160.833002 406.270572,164.204771 412.468619,166.522863 C418.666667,168.840954 425.956416,170 434.337866,170 Z M435.789954,148 C431.449011,148 427.808219,147.207921 424.86758,145.623762 C421.926941,144.039604 419.598935,141.80418 417.883562,138.917492 C416.168189,136.030803 414.925419,132.633663 414.155251,128.726073 C413.385084,124.818482 413,120.541254 413,115.894389 C413,110.89549 413.472603,106.442244 414.417808,102.534653 C415.363014,98.6270627 416.780822,95.2827283 418.671233,92.5016502 C420.561644,89.7205721 422.977169,87.6083608 425.917808,86.1650165 C428.858447,84.7216722 432.289193,84 436.210046,84 C440.621005,84 444.2793,84.809681 447.184932,86.4290429 C450.090563,88.0484048 452.418569,90.3014301 454.16895,93.1881188 C455.91933,96.0748075 457.1621,99.4719472 457.89726,103.379538 C458.63242,107.287129 459,111.564356 459,116.211221 C459,121.210121 458.544901,125.663366 457.634703,129.570957 C456.724505,133.478548 455.324201,136.805281 453.43379,139.551155 C451.543379,142.29703 449.127854,144.391639 446.187215,145.834983 C443.246575,147.278328 439.780822,148 435.789954,148 Z M545.890261,170 C549.129401,170 552.280521,169.718459 555.343621,169.155378 C558.406722,168.592297 561.240969,167.853254 563.846365,166.938247 C566.45176,166.02324 568.775492,164.98506 570.817558,163.823705 C572.859625,162.662351 574.303155,161.676959 575.148148,160.86753 C575.993141,160.058101 576.538866,159.389442 576.785322,158.861554 C577.031779,158.333665 577.243027,157.64741 577.419067,156.802789 C577.595107,155.958167 577.73594,154.919987 577.841564,153.688247 C577.947188,152.456507 578,150.925631 578,149.095618 C578,146.772908 577.929584,144.87251 577.788752,143.394422 C577.64792,141.916335 577.454275,140.702191 577.207819,139.751992 C576.961363,138.801793 576.626886,138.15073 576.20439,137.798805 C575.781893,137.446879 575.253772,137.270916 574.620027,137.270916 C573.704618,137.270916 572.577961,137.816401 571.240055,138.907371 C569.902149,139.99834 568.247371,141.212483 566.27572,142.549801 C564.30407,143.887118 561.997942,145.101262 559.357339,146.192231 C556.716735,147.283201 553.565615,147.828685 549.903978,147.828685 C546.312757,147.828685 543.161637,147.177623 540.450617,145.875498 C537.739598,144.573373 535.486283,142.620186 533.690672,140.015936 C531.895062,137.411687 530.539552,134.173971 529.624143,130.302789 C528.708733,126.431607 528.251029,121.962151 528.251029,116.894422 C528.251029,106.618194 530.081847,98.8230412 533.743484,93.5089641 C537.405121,88.1948871 542.686328,85.5378486 549.587106,85.5378486 C553.10791,85.5378486 556.135802,86.0305445 558.670782,87.0159363 C561.205761,88.001328 563.38866,89.0922975 565.219479,90.2888446 C567.050297,91.4853918 568.634659,92.5763612 569.972565,93.561753 C571.310471,94.5471448 572.577961,95.0398406 573.775034,95.0398406 C574.901692,95.0398406 575.817101,94.2128154 576.521262,92.5587649 C577.225423,90.9047145 577.577503,88.0365206 577.577503,83.9541833 C577.577503,82.1945551 577.524691,80.6988712 577.419067,79.4671315 C577.313443,78.2353918 577.172611,77.1972112 576.996571,76.3525896 C576.82053,75.5079681 576.574074,74.8217131 576.257202,74.2938247 C575.940329,73.7659363 575.394604,73.1148738 574.620027,72.3406375 C573.84545,71.5664011 572.525149,70.6513944 570.659122,69.5956175 C568.793096,68.5398406 566.680613,67.5896414 564.321674,66.7450199 C561.962734,65.9003984 559.427755,65.2317397 556.716735,64.7390438 C554.005716,64.2463479 551.241884,64 548.42524,64 C541.524463,64 535.187014,65.0909695 529.412894,67.2729084 C523.638775,69.4548473 518.639232,72.7981408 514.414266,77.3027888 C510.1893,81.8074369 506.897348,87.4910359 504.538409,94.3535857 C502.17947,101.216135 501,109.363214 501,118.794821 C501,126.959495 501.968221,134.209163 503.904664,140.543825 C505.841107,146.878486 508.710562,152.245352 512.513032,156.644422 C516.315501,161.043493 521.015775,164.36919 526.613855,166.621514 C532.211934,168.873838 538.637403,170 545.890261,170 Z M621.189427,170 C627.039648,170 632.46696,169.315109 637.471366,167.945328 C642.475771,166.575547 646.810573,164.520875 650.475771,161.781312 C654.140969,159.04175 656.977974,155.634858 658.986784,151.560636 C660.995595,147.486415 662,142.779987 662,137.441352 C662,133.156395 661.330396,129.450961 659.991189,126.32505 C658.651982,123.199139 656.889868,120.51226 654.704846,118.264414 C652.519824,116.016567 650.035242,114.119947 647.251101,112.574553 C644.46696,111.029158 641.647577,109.676938 638.792952,108.517893 C635.938326,107.358847 633.118943,106.287608 630.334802,105.304175 C627.550661,104.320742 625.066079,103.267064 622.881057,102.143141 C620.696035,101.019218 618.933921,99.7196819 617.594714,98.2445328 C616.255507,96.7693837 615.585903,94.9430086 615.585903,92.7654076 C615.585903,91.3605036 615.867841,90.0434062 616.431718,88.8141153 C616.995595,87.5848244 617.84141,86.5135852 618.969163,85.6003976 C620.096916,84.6872101 621.54185,83.9847581 623.303965,83.4930417 C625.066079,83.0013254 627.145374,82.7554672 629.54185,82.7554672 C632.92511,82.7554672 635.938326,83.1242545 638.581498,83.861829 C641.22467,84.5994036 643.550661,85.389662 645.559471,86.2326044 C647.568282,87.0755467 649.242291,87.8658052 650.581498,88.6033797 C651.920705,89.3409543 652.907489,89.7097416 653.54185,89.7097416 C654.105727,89.7097416 654.599119,89.5868125 655.022026,89.3409543 C655.444934,89.0950961 655.779736,88.620941 656.026432,87.9184891 C656.273128,87.2160371 656.449339,86.267727 656.555066,85.0735586 C656.660793,83.8793903 656.713656,82.333996 656.713656,80.4373757 C656.713656,78.8217362 656.660793,77.4695162 656.555066,76.3807157 C656.449339,75.2919152 656.325991,74.3787276 656.185022,73.6411531 C656.044053,72.9035785 655.832599,72.2713718 655.550661,71.7445328 C655.268722,71.2176938 654.792952,70.6908549 654.123348,70.1640159 C653.453744,69.6371769 652.343612,69.0049702 650.792952,68.2673956 C649.242291,67.5298211 647.339207,66.8449304 645.0837,66.2127237 C642.828194,65.5805169 640.30837,65.0536779 637.524229,64.6322068 C634.740088,64.2107356 631.867841,64 628.907489,64 C622.986784,64 617.647577,64.7375746 612.889868,66.2127237 C608.132159,67.6878728 604.096916,69.760106 600.784141,72.4294235 C597.471366,75.0987409 594.933921,78.3124586 593.171806,82.0705765 C591.409692,85.8286945 590.528634,89.9555997 590.528634,94.4512922 C590.528634,98.8767396 591.180617,102.66998 592.484581,105.831014 C593.788546,108.992048 595.515419,111.696488 597.665198,113.944334 C599.814978,116.19218 602.246696,118.088801 604.960352,119.634195 C607.674009,121.179589 610.45815,122.54937 613.312775,123.743539 C616.167401,124.937707 618.951542,126.026508 621.665198,127.00994 C624.378855,127.993373 626.810573,129.047051 628.960352,130.170974 C631.110132,131.294897 632.837004,132.611995 634.140969,134.122266 C635.444934,135.632538 636.096916,137.441352 636.096916,139.548708 C636.096916,141.375083 635.744493,142.990722 635.039648,144.395626 C634.334802,145.80053 633.295154,146.959576 631.920705,147.872763 C630.546256,148.785951 628.92511,149.488403 627.057269,149.980119 C625.189427,150.471836 623.057269,150.717694 620.660793,150.717694 C616.854626,150.717694 613.453744,150.2611 610.45815,149.347913 C607.462555,148.434725 604.837004,147.451292 602.581498,146.397614 C600.325991,145.343936 598.440529,144.378065 596.92511,143.5 C595.409692,142.621935 594.264317,142.182903 593.488987,142.182903 C592.854626,142.182903 592.325991,142.305832 591.903084,142.55169 C591.480176,142.797548 591.127753,143.289264 590.845815,144.026839 C590.563877,144.764414 590.352423,145.747846 590.211454,146.977137 C590.070485,148.206428 590,149.839629 590,151.87674 C590,154.967528 590.211454,157.303181 590.634361,158.883698 C591.057269,160.464215 591.656388,161.62326 592.431718,162.360835 C593.207048,163.09841 594.440529,163.888668 596.132159,164.73161 C597.823789,165.574553 599.938326,166.399934 602.475771,167.207753 C605.013216,168.015573 607.885463,168.682903 611.092511,169.209742 C614.299559,169.736581 617.665198,170 621.189427,170 Z" id="Docs" fill="#0C2550" fill-rule="nonzero"></path>
        </g>
    </g>
</svg>