<?xml version="1.0" encoding="UTF-8"?>
<svg width="24px" height="24px" viewBox="0 0 24 24" version="1.1" xmlns="http://www.w3.org/2000/svg" xmlns:xlink="http://www.w3.org/1999/xlink">
    <title>Path</title>
    <g id="bluewallet" stroke="none" stroke-width="1" fill="none" fill-rule="evenodd">
        <g id="bluewallet-site-copy-2" transform="translate(-1145.000000, -1934.000000)" fill="#637082" fill-rule="nonzero">
            <g id="Group-18" transform="translate(158.000000, 1842.000000)">
                <g id="github" transform="translate(987.000000, 92.000000)">
                    <g id="Group-10" transform="translate(0.000000, 0.015422)">
                        <path d="M11.9985,0 C5.373,0 0,5.394 0,12.048 C0,17.37 3.438,21.885 8.208,23.4795 C8.808,23.5905 9.027,23.2185 9.027,22.899 C9.027,22.6125 9.0165,21.855 9.0105,20.85 C5.673,21.5775 4.968,19.2345 4.968,19.2345 C4.4235,17.8425 3.636,17.472 3.636,17.472 C2.5455,16.725 3.717,16.74 3.717,16.74 C4.9215,16.8255 5.5545,17.982 5.5545,17.982 C6.6255,19.8225 8.364,19.2915 9.048,18.9825 C9.156,18.204 9.4665,17.673 9.81,17.3715 C7.146,17.067 4.344,16.0335 4.344,11.418 C4.344,10.1025 4.812,9.027 5.58,8.184 C5.4555,7.8795 5.0445,6.654 5.697,4.9965 C5.697,4.9965 6.705,4.6725 8.997,6.231 C9.954,5.964 10.98,5.8305 12.0015,5.826 C13.02,5.832 14.0475,5.964 15.006,6.2325 C17.2965,4.674 18.303,4.998 18.303,4.998 C18.957,6.657 18.546,7.881 18.423,8.1855 C19.1925,9.0285 19.656,10.104 19.656,11.4195 C19.656,16.047 16.851,17.0655 14.178,17.364 C14.6085,17.736 14.9925,18.471 14.9925,19.5945 C14.9925,21.2055 14.9775,22.5045 14.9775,22.899 C14.9775,23.2215 15.1935,23.5965 15.8025,23.478 C20.565,21.882 24,17.3685 24,12.048 C24,5.394 18.627,0 11.9985,0 Z" id="Path"></path>
                    </g>
                </g>
            </g>
        </g>
    </g>
</svg>