<?xml version="1.0" encoding="UTF-8"?>
<svg width="100px" height="90px" viewBox="0 0 100 90" version="1.1" xmlns="http://www.w3.org/2000/svg" xmlns:xlink="http://www.w3.org/1999/xlink">
    <title>Group</title>
    <g id="bluewallet" stroke="none" stroke-width="1" fill="none" fill-rule="evenodd">
        <g id="bluewallet-site-copy-2" transform="translate(-670.000000, -1011.000000)">
            <g id="Group-6-Copy" transform="translate(158.000000, 981.000000)">
                <g id="Group-5-Copy" transform="translate(380.000000, 0.000000)">
                    <g id="Group" transform="translate(132.000000, 30.000000)">
                        <rect id="Rectangle" x="0" y="0" width="100" height="90"></rect>
                        <g id="Group-19" transform="translate(5.000001, 2.000002)">
                            <path d="M32.0513602,0.18530378 C30.8348448,0.370609309 29.8271765,0.568269472 29.2251066,0.728865732 C28.9915781,0.802986545 28.5983554,0.901816626 28.3648968,0.963582805 C26.9394643,1.35890313 26.1775602,1.66774102 24.2114464,2.61897093 C22.0856383,3.64432167 20.4266773,4.76850947 18.4728692,6.46097549 C17.4038123,7.39984378 16.3838383,8.47463402 15.585157,9.51229744 C15.3516285,9.82112833 15.1304757,10.0929023 15.0936285,10.1300291 C14.8970172,10.2905625 14.0122659,11.6865592 13.2380562,13.0578048 C12.9062919,13.6384096 12.648222,14.0831625 11.6528594,15.8126714 C10.4609554,17.8757625 10.3380383,18.0857283 10.0431212,18.6169706 C9.89566268,18.876369 9.73589845,19.1358373 9.68674561,19.2099511 C9.63759276,19.2716893 9.42874561,19.6423283 9.23213422,20.0128974 C9.02321715,20.3835365 8.45792447,21.3842129 7.96639601,22.2365917 C6.79903341,24.262556 6.66388057,24.497273 6.3566578,25.0408909 C6.20919927,25.3002893 6.04943504,25.5596877 6.00028219,25.6338714 C5.95112935,25.6956096 5.74228219,26.0662487 5.54567081,26.4368178 C5.33675374,26.8074568 4.77146105,27.8080633 4.2799326,28.6605121 C3.03884073,30.797647 2.15408252,32.5148503 1.76085975,33.540208 C1.57654008,34.0096422 1.39221341,34.5161332 1.33077585,34.6519852 C1.20789374,34.9731917 0.777802843,36.4679836 0.618052599,37.1845104 C0.0159337369,39.7787739 -0.16839293,43.1760535 0.163392273,45.9556015 C0.446017639,48.3028422 0.532038615,48.6857869 1.24475488,50.9588438 C1.78543618,52.6759771 2.78078479,54.7761251 4.26769683,57.320956 C4.77146105,58.1734048 5.33675374,59.1740113 5.54567081,59.5446503 C5.74228219,59.9152194 5.95112935,60.2734828 6.00028219,60.3475966 C6.04943504,60.4094048 6.20919927,60.6811787 6.3566578,60.9282714 C6.66388057,61.4841251 6.79903341,61.7189121 7.96639601,63.7448763 C8.45792447,64.5972552 9.02321715,65.5979316 9.23213422,65.9685706 C9.42874561,66.3391397 9.63759276,66.6974031 9.68674561,66.771517 C9.73589845,66.8333251 9.89566268,67.1050991 10.0431212,67.3644974 C10.3380383,67.8957397 10.4609554,68.1057056 11.6528594,70.1690064 C12.648222,71.8980958 12.9062919,72.3427787 13.2380562,72.9112178 C14.0122659,74.2949088 14.8970172,75.6911852 15.0936285,75.8512991 C15.1304757,75.888356 15.3516285,76.1603397 15.585157,76.4693804 C17.6372708,79.1619495 20.8568172,81.7314617 24.2114464,83.3626649 C27.1729228,84.8078844 28.9055781,85.3266812 32.1742773,85.7958357 C34.0789326,86.0678194 56.8121586,86.0678194 58.7168139,85.7958357 C61.9855131,85.3266812 63.7181684,84.8078844 66.6796448,83.3626649 C68.2399505,82.6089413 69.5425359,81.8062747 70.7591212,80.8672665 C73.8684058,78.4704535 75.6744058,76.3952665 77.653105,72.9238031 C78.0096903,72.3057218 78.2676903,71.8491527 79.2381619,70.1690064 C80.4302757,68.1057056 80.5533326,67.8957397 80.8476903,67.3521218 C80.9952188,67.1050991 81.1553326,66.8333251 81.2042757,66.771517 C81.2532188,66.6974031 81.4622757,66.3391397 81.6587472,65.9685706 C81.8678041,65.5979316 82.4334464,64.5972552 82.9249749,63.7448763 C84.091918,61.7189121 84.2275602,61.484195 84.5345033,60.9405771 C84.6820318,60.6811787 84.8414464,60.4094048 84.8910887,60.3475966 C84.9400318,60.2734828 85.1490887,59.9152194 85.3455602,59.5446503 C85.5546172,59.1740113 86.1195602,58.1734048 86.6236741,57.320956 C88.1101456,54.7761251 89.1057879,52.6759771 89.6462594,50.9588438 C90.358731,48.6857869 90.444731,48.3028422 90.7279017,45.9556015 C91.0593163,43.1760535 90.8873163,39.8282064 90.2853163,37.1845104 C89.7077879,34.6643609 88.5401456,31.9465511 86.6236741,28.6605121 C86.1195602,27.8080633 85.5546172,26.8074568 85.3455602,26.4368178 C85.1490887,26.0662487 84.9400318,25.6956096 84.8910887,25.6338714 C84.8414464,25.5596877 84.6820318,25.3002893 84.5345033,25.0408909 C84.2275602,24.497273 84.091918,24.262556 82.9249749,22.2365917 C82.4334464,21.3842129 81.8678041,20.3835365 81.6587472,20.0128974 C81.4622757,19.6423283 81.2532188,19.2716893 81.2042757,19.2099511 C81.1553326,19.1358373 80.9952188,18.876369 80.8476903,18.6169706 C80.5533326,18.0857283 80.4302757,17.8757625 79.2381619,15.8126714 C78.2676903,14.132595 78.0096903,13.6755365 77.653105,13.0578048 C75.6744058,9.58641126 73.8684058,7.51101451 70.7591212,5.11441126 C69.5425359,4.17553598 68.2399505,3.37254069 66.6796448,2.61897093 C63.7181684,1.17359061 61.9855131,0.654744919 58.7168139,0.18530378 C56.9842285,-0.0617679268 33.722557,-0.0617679268 32.0513602,0.18530378 Z" id="Path" fill="#E3E7EE"></path>
                            <path d="M60.2448871,15.3913413 C62.4755732,16.4352275 63.5590334,17.7134812 66.1296643,22.2511348 C67.3617716,24.4028129 68.5517879,26.5118405 68.8062919,26.9379251 C76.3267472,39.8905039 76.2421456,39.7413674 76.6672513,41.6373527 C76.9644058,43.0007674 76.9853814,43.4268519 76.7518529,44.7051056 C76.3910724,46.6863218 76.3693976,46.7502275 68.8062919,59.7880373 C68.5517879,60.2140519 67.3617716,62.3231495 66.1296643,64.4748275 C63.5590334,69.0125511 62.4755732,70.2906649 60.2448871,71.3345511 L58.8002968,72.0162584 L45.0975602,72.0162584 L31.3948237,72.0162584 L29.9502334,71.3345511 C27.7195472,70.2906649 26.6360871,69.0125511 24.0654562,64.4748275 C22.8332789,62.3231495 21.6436123,60.2140519 21.3886887,59.7880373 C13.8256529,46.7502275 13.8043976,46.6863218 13.4431976,44.7051056 C13.2095293,43.4268519 13.2307846,43.0007674 13.5282188,41.6373527 C13.9531147,39.7413674 13.8680936,39.8905039 21.3886887,26.9379251 C21.6436123,26.5118405 22.8332789,24.4028129 24.0654562,22.2511348 C25.6163228,19.5242357 26.6360871,17.9904291 27.4008578,17.2021657 C28.5693391,16.0304682 30.3538741,15.0504877 31.8197196,14.7948649 C32.2871261,14.709634 38.5542188,14.6670535 45.7348692,14.6883787 L58.8002968,14.709634 L60.2448871,15.3913413 Z" id="Path" fill="#28ABFA"></path>
                            <path d="M54.618809,26.9751917 C55.9180383,27.5734861 56.5490545,28.3060942 58.0462237,30.9069999 C58.7638692,32.1402259 59.4567635,33.3491202 59.6052009,33.5932763 C63.9853277,41.0173137 63.9358253,40.931873 64.1832676,42.0186194 C64.3565261,42.8001007 64.3689017,43.0442568 64.23277,43.7769348 C64.0224545,44.9124844 64.0100789,44.9491218 59.6052009,52.4220324 C59.4567635,52.6662584 58.7638692,53.8750828 58.0462237,55.1083787 C56.5490545,57.7092145 55.9180383,58.4418226 54.618809,59.0401869 L53.7774773,59.4308926 L45.7967472,59.4308926 L37.8160172,59.4308926 L36.9746854,59.0401869 C35.6754562,58.4418226 35.0444399,57.7092145 33.5472708,55.1083787 C32.8296253,53.8750828 32.136731,52.6662584 31.9882936,52.4220324 C27.5834155,44.9491218 27.5710399,44.9124844 27.3607245,43.7769348 C27.2245928,43.0442568 27.2369684,42.8001007 27.4102269,42.0186194 C27.6576692,40.931873 27.6081667,41.0173137 31.9882936,33.5932763 C32.136731,33.3491202 32.8296253,32.1402259 33.5472708,30.9069999 C34.4505505,29.3440373 35.0444399,28.4648796 35.4898919,28.0130649 C36.1704106,27.3414958 37.2097521,26.779769 38.0635293,26.6332893 C38.3357228,26.5844161 41.9858285,26.5600145 46.1679456,26.5722503 L53.7774773,26.5844161 L54.618809,26.9751917 Z" id="Path" fill="#0070FF"></path>
                            <path d="M43.5192155,43.4312568 L41.9480025,53.1382096 L49.6462611,53.1382096 L48.0742789,43.4312568 C49.8270009,42.5902048 51.0406497,40.8157381 51.0406497,38.7564926 C51.0406497,35.8884974 48.6930594,33.5609739 45.7967472,33.5609739 C42.900435,33.5609739 40.5528448,35.8884974 40.5528448,38.7564926 C40.5528448,40.8157381 41.7656545,42.5902048 43.5192155,43.4312568 Z" id="Path" fill="#FFFFFF" fill-rule="nonzero"></path>
                        </g>
                    </g>
                </g>
            </g>
        </g>
    </g>
</svg>