<?xml version="1.0" encoding="UTF-8"?>
<svg width="100px" height="90px" viewBox="0 0 100 90" version="1.1" xmlns="http://www.w3.org/2000/svg" xmlns:xlink="http://www.w3.org/1999/xlink">
    <title>noun_notification_325051</title>
    <g id="bluewallet" stroke="none" stroke-width="1" fill="none" fill-rule="evenodd">
        <g id="bluewallet-site-copy-2" transform="translate(-287.000000, -1309.000000)">
            <g id="Group-6-Copy" transform="translate(158.000000, 981.000000)">
                <g id="Group-2-Copy" transform="translate(0.000000, 298.000000)">
                    <g id="noun_notification_325051" transform="translate(129.000000, 30.000000)">
                        <rect id="Rectangle" x="0" y="0" width="100" height="90"></rect>
                        <g id="Group-21" transform="translate(14.127273, 5.127273)">
                            <path d="M68.8,74.6792727 C68.8,77.4625455 66.5327273,79.7454545 63.7338182,79.7454545 L5.06618182,79.7454545 C2.26727273,79.7454545 -3.62376795e-13,77.4781818 -3.62376795e-13,74.6792727 L-3.62376795e-13,16.0116364 C-3.62376795e-13,13.2127273 2.26727273,10.9454545 5.06618182,10.9454545 L50.1301818,10.9454545 C50.0676364,11.4614545 50.0363636,11.9774545 50.0363636,12.5090909 C50.0363636,21.1247273 57.0570909,28.1454545 65.6727273,28.1454545 C66.736,28.1454545 67.7836364,28.036 68.8,27.8327273 L68.8,74.6792727 Z" id="Path" fill="#E3E7EE" fill-rule="nonzero"></path>
                            <path d="M69.8163636,24.2989091 C69.5036364,24.4083636 69.1909091,24.5021818 68.8781818,24.5803636 C68.8156364,24.596 68.7687273,24.6116364 68.7061818,24.6272727 C68.4247273,24.7054545 68.1432727,24.7523636 67.8774545,24.8149091 C67.7367273,24.8461818 67.5803636,24.8618182 67.4396364,24.8774545 C67.2363636,24.9087273 67.0174545,24.94 66.8141818,24.9556364 C66.4389091,24.9869091 66.0636364,25.0181818 65.6727273,25.0181818 C58.7770909,25.0181818 53.1636364,19.4047273 53.1636364,12.5090909 C53.1636364,11.6021818 53.2730909,10.664 53.492,9.72581818 C54.7585455,4.17490909 59.7309091,-7.10542736e-15 65.6727273,-7.10542736e-15 C72.5683636,-7.10542736e-15 78.1818182,5.61345455 78.1818182,12.5090909 C78.1818182,17.9505455 74.6792727,22.5789091 69.8163636,24.2989091 Z" id="Path" fill="#0070FF" fill-rule="nonzero"></path>
                            <path d="M67.8167614,18.6444318 C67.6542614,18.7013068 67.4917614,18.7500568 67.3292614,18.7906818 C67.2967614,18.7988068 67.2723864,18.8069318 67.2398864,18.8150568 C67.0936364,18.8556818 66.9473864,18.8800568 66.8092614,18.9125568 C66.7361364,18.9288068 66.6548864,18.9369318 66.5817614,18.9450568 C66.4761364,18.9613068 66.3623864,18.9775568 66.2567614,18.9856818 C66.0617614,19.0019318 65.8667614,19.0181818 65.6636364,19.0181818 C62.0805114,19.0181818 59.1636364,16.1013068 59.1636364,12.5181818 C59.1636364,12.0469318 59.2205114,11.5594318 59.3342614,11.0719318 C59.9923864,8.18755682 62.5761364,6.01818182 65.6636364,6.01818182 C69.2467614,6.01818182 72.1636364,8.93505682 72.1636364,12.5181818 C72.1636364,15.3456818 70.3436364,17.7506818 67.8167614,18.6444318 Z" id="Path-Copy" fill="#28ABFA" fill-rule="nonzero"></path>
                            <rect id="Rectangle" fill="#C9D0D9" x="6.87272727" y="66.8727273" width="56" height="8" rx="3"></rect>
                        </g>
                    </g>
                </g>
            </g>
        </g>
    </g>
</svg>