<?xml version="1.0" encoding="UTF-8"?>
<svg width="100px" height="90px" viewBox="0 0 100 90" version="1.1" xmlns="http://www.w3.org/2000/svg" xmlns:xlink="http://www.w3.org/1999/xlink">
    <title>Group 13</title>
    <g id="bluewallet" stroke="none" stroke-width="1" fill="none" fill-rule="evenodd">
        <g id="bluewallet-site-copy-2" transform="translate(-670.000000, -1309.000000)">
            <g id="Group-6-Copy" transform="translate(158.000000, 981.000000)">
                <g id="Group-2-Copy" transform="translate(0.000000, 298.000000)">
                    <g id="Group-5-Copy" transform="translate(380.000000, 0.000000)">
                        <g id="Group-13" transform="translate(132.000000, 30.000000)">
                            <rect id="Rectangle" x="0" y="0" width="100" height="90"></rect>
                            <g id="Group-15" transform="translate(16.000000, 3.000000)" fill-rule="nonzero">
                                <g id="Group-10">
                                    <path d="M50.3703704,36.5940594 C48.0491358,36.5940594 46.1728395,34.7246257 46.1728395,32.4118812 L46.1728395,20.9108911 C46.1728395,13.9935683 40.522963,8.36435644 33.5802469,8.36435644 C26.6375309,8.36435644 20.9876543,13.9935683 20.9876543,20.9108911 L20.9876543,32.4118812 C20.9876543,34.7246257 19.111358,36.5940594 16.7901235,36.5940594 C14.4688889,36.5940594 12.5925926,34.7246257 12.5925926,32.4118812 L12.5925926,20.9108911 C12.5925926,9.38062574 22.0076543,0 33.5802469,0 C45.1528395,0 54.5679012,9.38062574 54.5679012,20.9108911 L54.5679012,32.4118812 C54.5679012,34.7246257 52.6916049,36.5940594 50.3703704,36.5940594 Z" id="Path" fill="#C9D0D9"></path>
                                    <path d="M58.4375,84 L9.5625,84 C4.2925,84 0,79.7353846 0,74.4996192 L0,38.6092917 C0,33.3735263 4.2925,29.1089109 9.5625,29.1089109 L58.4375,29.1089109 C63.7075,29.1089109 68,33.3735263 68,38.6092917 L68,74.4996192 C68,79.7353846 63.7075,84 58.4375,84 Z" id="Path" fill="#0070FF"></path>
                                </g>
                                <path d="M33.5802469,0 C22.0076543,0 12.5925926,9.32732673 12.5925926,20.7920792 L12.5925926,29.1089109 L20.9876543,29.1089109 L20.9876543,20.7920792 C20.9876543,13.9140594 26.6375309,8.31683168 33.5802469,8.31683168 L33.5802469,0 Z" id="Path" fill="#E3E7EE"></path>
                                <path d="M42,29.1089109 L26.25,29.1089109 L15.75,29.1089109 L11.8125,29.1089109 C5.3025,29.1089109 0,33.3735263 0,38.6092917 L0,74.4996192 C0,79.7353846 5.3025,84 11.8125,84 L42,84 L42,29.1089109 Z" id="Path" fill="#28ABFA"></path>
                            </g>
                        </g>
                    </g>
                </g>
            </g>
        </g>
    </g>
</svg>