<?xml version="1.0" encoding="UTF-8"?>
<svg width="24px" height="20px" viewBox="0 0 24 20" version="1.1" xmlns="http://www.w3.org/2000/svg" xmlns:xlink="http://www.w3.org/1999/xlink">
    <title>twitter</title>
    <g id="bluewallet" stroke="none" stroke-width="1" fill="none" fill-rule="evenodd">
        <g id="bluewallet-site-copy-2" transform="translate(-755.000000, -1935.000000)" fill="#637082" fill-rule="nonzero">
            <g id="Group-18" transform="translate(158.000000, 1842.000000)">
                <g id="Group-9" transform="translate(597.000000, 92.000000)">
                    <g id="twitter" transform="translate(0.000000, 1.000000)">
                        <path d="M23.5697518,2.34627737 C23.0376058,2.58224818 22.4851971,2.76840876 21.918365,2.90318248 C22.5429489,2.30966423 23.0125547,1.56729927 23.2774891,0.738686131 L23.2774891,0.738686131 C23.3531095,0.502131387 23.0961752,0.297576642 22.8825693,0.424233577 L22.8825693,0.424233577 C22.0940146,0.891970803 21.2446131,1.24286131 20.3578978,1.46727007 C20.3064526,1.48029197 20.2533723,1.48689051 20.2001168,1.48689051 C20.0385985,1.48689051 19.8815766,1.42691971 19.758073,1.31807299 C18.8146569,0.48659854 17.6012847,0.0286715328 16.3415474,0.0286715328 C15.796438,0.0286715328 15.246073,0.113635036 14.7056934,0.281226277 C13.0314161,0.800525547 11.739562,2.18160584 11.3342482,3.88554745 C11.1821898,4.52467153 11.1410219,5.16437956 11.2117956,5.78686131 C11.2199124,5.85839416 11.1861022,5.90832117 11.1652555,5.93173723 C11.1286423,5.97278832 11.0767299,5.99632117 11.0228321,5.99632117 C11.0168175,5.99632117 11.0106277,5.9960292 11.0044964,5.99544526 C7.33956204,5.65494891 4.03468613,3.88928467 1.69862774,1.02376642 L1.69862774,1.02376642 C1.57950365,0.877605839 1.35106569,0.895532847 1.25611679,1.05839416 L1.25611679,1.05839416 C0.798656934,1.84321168 0.556905109,2.74084672 0.556905109,3.65424818 C0.556905109,5.05407299 1.11929927,6.37325547 2.09617518,7.33494891 C1.68537226,7.23754745 1.28776642,7.08414599 0.918423358,6.8790073 L0.918423358,6.8790073 C0.739737226,6.77973723 0.519883212,6.90732847 0.517372263,7.11170803 L0.517372263,7.11170803 C0.49179562,9.19124088 1.70931387,11.041635 3.53319708,11.8748613 C3.49646715,11.8757372 3.45973723,11.876146 3.42294891,11.876146 C3.13383942,11.876146 2.84110949,11.8482336 2.5529927,11.7931679 L2.5529927,11.7931679 C2.35176642,11.7547445 2.18271533,11.945635 2.24519708,12.1407299 L2.24519708,12.1407299 C2.83719708,13.9889635 4.42855474,15.3512993 6.33290511,15.6606131 C4.75240876,16.7215766 2.91188321,17.2812263 0.996262774,17.2812263 L0.399065693,17.2808759 C0.215065693,17.2808759 0.0594452555,17.4008175 0.0125547445,17.5790365 C-0.0336350365,17.7545693 0.0514452555,17.9397372 0.208350365,18.0310073 C2.36694891,19.2872409 4.82913869,19.9511825 7.32981022,19.9511825 C9.51871533,19.9511825 11.5662482,19.5167883 13.4155912,18.660146 C15.1109489,17.8748029 16.6091095,16.7521752 17.868438,15.3234453 C19.0415766,13.9925255 19.9589489,12.4561168 20.5949781,10.7569635 C21.2012847,9.13728467 21.5217518,7.40905109 21.5217518,5.75906569 L21.5217518,5.68046715 C21.5216934,5.41553285 21.6415182,5.16624818 21.8505693,4.99655474 C22.643854,4.35246715 23.3346569,3.59427737 23.903708,2.74306569 L23.903708,2.74306569 C24.0539562,2.51830657 23.8169927,2.23661314 23.5697518,2.34627737 L23.5697518,2.34627737 Z" id="Path"></path>
                    </g>
                </g>
            </g>
        </g>
    </g>
</svg>