<?xml version="1.0" encoding="UTF-8"?>
<svg width="100px" height="90px" viewBox="0 0 100 90" version="1.1" xmlns="http://www.w3.org/2000/svg" xmlns:xlink="http://www.w3.org/1999/xlink">
    <title>local-step1 copy</title>
    <g id="bluewallet" stroke="none" stroke-width="1" fill="none" fill-rule="evenodd">
        <g id="bluewallet-site-copy-2" transform="translate(-290.000000, -1010.000000)">
            <g id="Group-6-Copy" transform="translate(158.000000, 981.000000)">
                <g id="local-step1-copy" transform="translate(132.000000, 29.000000)">
                    <rect id="Rectangle" x="0" y="0" width="100" height="90"></rect>
                    <g id="shield" transform="translate(12.000000, 3.000000)" fill-rule="nonzero">
                        <path d="M37.715847,0 L14,43 L37.715847,86 L38.5626721,85.7031992 C49.4097923,81.9015625 58.7106393,74.975707 65.4589836,65.6741016 C72.3548743,56.1694219 76,44.9368477 76,33.1911289 L76,10.7946797 L37.715847,0 Z" id="Path" fill="#C9D0D9"></path>
                        <path d="M0,10.7946797 L0,33.1911289 C0,44.9370156 3.6180708,56.1695898 10.4627788,65.6742695 C17.1612035,74.975875 26.3928496,81.9017305 37.1594602,85.7033672 L38,86 L38,0 L0,10.7946797 Z" id="Path" fill="#E3E7EE"></path>
                        <path d="M65.8678333,37 C65.9553333,35.846376 66,34.6847593 66,33.5168149 L66,18.8600624 L38.3333333,11 L20,37 L65.8678333,37 Z" id="Path" fill="#C4EAFF"></path>
                        <path d="M38,11 L10,18.8601786 L10,33.5168372 C10,34.6847741 10.0452048,35.8463834 10.133759,37 L38,37 L38,11 Z" id="Path" fill="#FFFFFF"></path>
                        <path d="M37.9678779,29 L21,52 L37.9678779,75 L39.0132689,74.5381894 C46.3567968,71.2935328 52.7467299,66.1588643 57.4926454,59.6890222 C62.4538832,52.925119 65.3620078,45.0794973 66,36.8179963 L37.9678779,29 Z" id="Path" fill="#0070FF"></path>
                        <path d="M10,36.8179963 C10.6372611,45.0794973 13.5420533,52.925119 18.4977755,59.6890222 C23.2380831,66.1588643 29.620694,71.2933664 36.955807,74.5381894 L38,75 L38,29 L10,36.8179963 Z" id="Path" fill="#28ABFA"></path>
                    </g>
                </g>
            </g>
        </g>
    </g>
</svg>