<?xml version="1.0" encoding="UTF-8"?>
<svg width="111px" height="26px" viewBox="0 0 111 26" version="1.1" xmlns="http://www.w3.org/2000/svg" xmlns:xlink="http://www.w3.org/1999/xlink">
    <title>lndhub</title>
    <g id="lndhub" stroke="none" stroke-width="1" fill="none" fill-rule="evenodd">
        <g transform="translate(-250.000000, -58.000000)">
            <g transform="translate(250.000000, 58.000000)">
                <path d="M9.88861103,21.1728045 C9.88861103,21.4560921 9.87702112,21.6945222 9.85384095,21.888102 C9.83066078,22.0816818 9.79589105,22.242209 9.74953071,22.3696884 C9.70317037,22.4971678 9.64522081,22.5892348 9.5756803,22.6458924 C9.50613979,22.7025499 9.42501042,22.7308782 9.33228974,22.7308782 L1.08482653,22.7308782 C0.778848284,22.7308782 0.521552258,22.6388111 0.312930729,22.4546742 C0.1043092,22.2705373 0,21.9707292 0,21.5552408 L0,4.9121813 C0,4.81775212 0.0301337688,4.73276714 0.0904022106,4.6572238 C0.150670652,4.58168045 0.250343888,4.52030241 0.389424907,4.47308782 C0.528505926,4.42587323 0.716262486,4.38810212 0.952700219,4.35977337 C1.18913795,4.33144462 1.48352169,4.31728045 1.83586028,4.31728045 C2.19747093,4.31728045 2.49417265,4.33144462 2.72597435,4.35977337 C2.95777605,4.38810212 3.14321463,4.42587323 3.28229564,4.47308782 C3.42137666,4.52030241 3.5210499,4.58168045 3.58131834,4.6572238 C3.64158678,4.73276714 3.67172055,4.81775212 3.67172055,4.9121813 L3.67172055,19.6572238 L9.33228974,19.6572238 C9.42501042,19.6572238 9.50613979,19.6831914 9.5756803,19.7351275 C9.64522081,19.7870635 9.70317037,19.8720485 9.74953071,19.990085 C9.79589105,20.1081215 9.83066078,20.2639273 9.85384095,20.4575071 C9.87702112,20.6510869 9.88861103,20.889517 9.88861103,21.1728045 Z M26.6147274,21.427762 C26.6147274,21.6449492 26.5776397,21.8385261 26.5034631,22.0084986 C26.4292866,22.1784711 26.3296133,22.3201127 26.2044404,22.4334278 C26.0792675,22.5467428 25.9309166,22.6293671 25.7593834,22.6813031 C25.5878501,22.7332392 25.4140015,22.7592068 25.2378322,22.7592068 L23.6801325,22.7592068 C23.3556102,22.7592068 23.0751343,22.7261571 22.8386966,22.6600567 C22.6022589,22.5939562 22.3843685,22.4735608 22.1850191,22.2988669 C21.9856696,22.1241729 21.7932771,21.8881035 21.6078357,21.5906516 C21.4223944,21.2931996 21.213776,20.9084065 20.9819743,20.4362606 L16.5035878,11.8668555 C16.2439699,11.356938 15.97972,10.8068962 15.71083,10.2167139 C15.44194,9.62653152 15.2008699,9.05288286 14.9876123,8.49575071 L14.9597962,8.49575071 C14.9968845,9.17564079 15.0247003,9.85315999 15.0432444,10.5283286 C15.0617886,11.2034972 15.0710605,11.899902 15.0710605,12.6175637 L15.0710605,22.2067989 C15.0710605,22.301228 15.0455627,22.386213 14.9945663,22.4617564 C14.9435699,22.5372997 14.8554866,22.6010385 14.7303137,22.6529745 C14.6051408,22.7049106 14.4359281,22.7450424 14.2226705,22.7733711 C14.009413,22.8016999 13.7358911,22.815864 13.4020966,22.815864 C13.0775742,22.815864 12.8086883,22.8016999 12.5954307,22.7733711 C12.3821732,22.7450424 12.2152784,22.7049106 12.0947416,22.6529745 C11.9742047,22.6010385 11.8907573,22.5372997 11.844397,22.4617564 C11.7980366,22.386213 11.7748568,22.301228 11.7748568,22.2067989 L11.7748568,5.73371105 C11.7748568,5.28989391 11.9023458,4.95703605 12.1573277,4.73512748 C12.4123096,4.51321891 12.7252372,4.40226629 13.0961199,4.40226629 L15.0571525,4.40226629 C15.409491,4.40226629 15.7061928,4.43295531 15.9472665,4.49433428 C16.1883403,4.55571324 16.4039126,4.65722309 16.59399,4.79886686 C16.7840674,4.94051062 16.9625521,5.13644823 17.1294493,5.38668555 C17.2963465,5.63692288 17.4678772,5.9461738 17.6440465,6.31444759 L21.1488706,13.0141643 C21.3528561,13.4202098 21.5545206,13.8191671 21.7538701,14.2110482 C21.9532195,14.6029292 22.145612,14.9948045 22.3310534,15.3866856 C22.5164948,15.7785666 22.6972974,16.1633598 22.8734667,16.5410765 C23.049636,16.9187932 23.2211666,17.2965042 23.3880639,17.674221 L23.4019719,17.674221 C23.3741557,17.0132167 23.3532939,16.3238941 23.3393858,15.6062323 C23.3254776,14.8885705 23.3185237,14.2039693 23.3185237,13.5524079 L23.3185237,4.95467422 C23.3185237,4.86024504 23.3463395,4.77526006 23.4019719,4.69971671 C23.4576043,4.62417337 23.5503236,4.55807394 23.6801325,4.50141643 C23.8099415,4.44475892 23.9814722,4.40462712 24.1947297,4.38101983 C24.4079873,4.35741254 24.6815092,4.34560907 25.0153037,4.34560907 C25.330554,4.34560907 25.5948039,4.35741254 25.8080615,4.38101983 C26.0213191,4.40462712 26.1858958,4.44475892 26.3017967,4.50141643 C26.4176975,4.55807394 26.4988269,4.62417337 26.5451872,4.69971671 C26.5915476,4.77526006 26.6147274,4.86024504 26.6147274,4.95467422 L26.6147274,21.427762 Z M45.2184281,13.2974504 C45.2184281,14.9782898 45.0028558,16.4159525 44.5717046,17.6104816 C44.1405534,18.8050107 43.5216522,19.7799773 42.7149823,20.5354108 C41.9083124,21.2908442 40.9278059,21.8456073 39.7734334,22.1997167 C38.619061,22.5538261 37.2444975,22.7308782 35.6497018,22.7308782 L31.3521198,22.7308782 C31.0461416,22.7308782 30.7888455,22.6388111 30.580224,22.4546742 C30.3716025,22.2705373 30.2672933,21.9707292 30.2672933,21.5552408 L30.2672933,5.57790368 C30.2672933,5.1624153 30.3716025,4.86260715 30.580224,4.67847025 C30.7888455,4.49433336 31.0461416,4.40226629 31.3521198,4.40226629 L35.9695866,4.40226629 C37.5736543,4.40226629 38.9343099,4.59348251 40.0515941,4.97592068 C41.1688783,5.35835885 42.109979,5.92492542 42.8749246,6.67563739 C43.6398702,7.42634936 44.2216838,8.35410212 44.6203827,9.45892351 C45.0190816,10.5637449 45.2184281,11.8432411 45.2184281,13.2974504 Z M41.4354433,13.4249292 C41.4354433,12.5561807 41.3357701,11.7488234 41.1364206,11.0028329 C40.9370711,10.2568424 40.6171896,9.61001218 40.1767664,9.06232295 C39.7363431,8.51463371 39.1707555,8.08734809 38.4799864,7.78045326 C37.7892173,7.47355843 36.8828863,7.32011331 35.7609661,7.32011331 L33.9111978,7.32011331 L33.9111978,19.7847025 L35.8165982,19.7847025 C36.8179815,19.7847025 37.6617271,19.6525037 38.3478601,19.388102 C39.0339931,19.1237003 39.6065347,18.724743 40.0655021,18.1912181 C40.5244695,17.6576933 40.8675308,16.9943382 41.0946965,16.2011331 C41.3218622,15.407928 41.4354433,14.482536 41.4354433,13.4249292 Z M80.871787,22.3767705 C80.871787,22.4523139 80.8532432,22.5160526 80.8161549,22.5679887 C80.7790666,22.6199247 80.7187991,22.6647779 80.6353505,22.7025496 C80.5519019,22.7403212 80.4360028,22.7686496 80.2876497,22.7875354 C80.1392966,22.8064212 79.953858,22.815864 79.7313284,22.815864 C79.4995267,22.815864 79.3094521,22.8064212 79.1610991,22.7875354 C79.012746,22.7686496 78.8968469,22.7403212 78.8133983,22.7025496 C78.7299496,22.6647779 78.6696821,22.6199247 78.6325938,22.5679887 C78.5955056,22.5160526 78.5769617,22.4523139 78.5769617,22.3767705 L78.5769617,14.9121813 C78.5769617,14.1850766 78.5213301,13.5996245 78.4100653,13.1558074 C78.2988005,12.7119902 78.1365417,12.3295578 77.9232842,12.0084986 C77.7100266,11.6874394 77.4341867,11.4419272 77.0957563,11.2719547 C76.7573258,11.1019822 76.3655868,11.0169972 75.9205275,11.0169972 C75.3456593,11.0169972 74.7707997,11.2247382 74.1959315,11.6402266 C73.6210633,12.055715 73.0183879,12.6647741 72.3878873,13.4674221 L72.3878873,22.3767705 C72.3878873,22.4523139 72.3693434,22.5160526 72.3322552,22.5679887 C72.2951669,22.6199247 72.2348993,22.6647779 72.1514507,22.7025496 C72.0680021,22.7403212 71.952103,22.7686496 71.8037499,22.7875354 C71.6553968,22.8064212 71.4653223,22.815864 71.2335206,22.815864 C71.010991,22.815864 70.8255524,22.8064212 70.6771993,22.7875354 C70.5288462,22.7686496 70.4106291,22.7403212 70.3225445,22.7025496 C70.2344598,22.6647779 70.1741923,22.6199247 70.1417401,22.5679887 C70.1092878,22.5160526 70.0930619,22.4523139 70.0930619,22.3767705 L70.0930619,3.45325779 C70.0930619,3.37771445 70.1092878,3.31161501 70.1417401,3.25495751 C70.1741923,3.1983 70.2344598,3.15108612 70.3225445,3.11331445 C70.4106291,3.07554278 70.5288462,3.04721445 70.6771993,3.02832861 C70.8255524,3.00944278 71.010991,3 71.2335206,3 C71.4653223,3 71.6553968,3.00944278 71.8037499,3.02832861 C71.952103,3.04721445 72.0680021,3.07554278 72.1514507,3.11331445 C72.2348993,3.15108612 72.2951669,3.1983 72.3322552,3.25495751 C72.3693434,3.31161501 72.3878873,3.37771445 72.3878873,3.45325779 L72.3878873,11.0878187 C73.0462041,10.3795999 73.709147,9.85316508 74.3767359,9.50849858 C75.0443248,9.16383208 75.7165397,8.99150142 76.3934006,8.99150142 C77.2278867,8.99150142 77.9302353,9.13550375 78.5004675,9.42351275 C79.0706997,9.71152174 79.5319782,10.0963149 79.8843167,10.5779037 C80.2366553,11.0594925 80.4893154,11.6236984 80.6423045,12.2705382 C80.7952936,12.9173781 80.871787,13.6987678 80.871787,14.6147309 L80.871787,22.3767705 Z M95.5116985,22.3767705 C95.5116985,22.4523139 95.4954727,22.5160526 95.4630204,22.5679887 C95.4305682,22.6199247 95.3726186,22.6647779 95.28917,22.7025496 C95.2057214,22.7403212 95.0967762,22.7686496 94.9623313,22.7875354 C94.8278863,22.8064212 94.6633095,22.815864 94.4685961,22.815864 C94.2553385,22.815864 94.0814899,22.8064212 93.9470449,22.7875354 C93.8125999,22.7686496 93.7059727,22.7403212 93.6271601,22.7025496 C93.5483476,22.6647779 93.495034,22.6199247 93.4672178,22.5679887 C93.4394016,22.5160526 93.4254937,22.4523139 93.4254937,22.3767705 L93.4254937,20.6912181 C92.7115444,21.4938661 92.0068778,22.0793183 91.3114728,22.4475921 C90.6160677,22.8158659 89.9114011,23 89.1974518,23 C88.3629657,23 87.6606171,22.8583584 87.0903849,22.5750708 C86.5201527,22.2917833 86.0588743,21.9069902 85.7065357,21.4206799 C85.3541971,20.9343696 85.1015371,20.367803 84.9485479,19.7209632 C84.7955588,19.0741233 84.7190654,18.2880122 84.7190654,17.3626062 L84.7190654,9.62889518 C84.7190654,9.55335184 84.7352913,9.4896131 84.7677435,9.43767705 C84.8001957,9.38574101 84.8627813,9.33852712 84.9555019,9.29603399 C85.0482226,9.25354086 85.1687577,9.22521254 85.3171108,9.21104816 C85.4654639,9.19688378 85.6509025,9.1898017 85.8734321,9.1898017 C86.0959617,9.1898017 86.2814003,9.19688378 86.4297534,9.21104816 C86.5781065,9.22521254 86.6963236,9.25354086 86.7844082,9.29603399 C86.8724929,9.33852712 86.9350784,9.38574101 86.9721666,9.43767705 C87.0092549,9.4896131 87.0277988,9.55335184 87.0277988,9.62889518 L87.0277988,17.0509915 C87.0277988,17.796982 87.0811124,18.3942376 87.1877411,18.8427762 C87.2943699,19.2913148 87.4566287,19.6737472 87.6745223,19.990085 C87.8924159,20.3064227 88.1682558,20.5519349 88.5020502,20.7266289 C88.8358447,20.9013229 89.2252657,20.9886686 89.6703249,20.9886686 C90.2451931,20.9886686 90.8177348,20.7809275 91.3879669,20.3654391 C91.9581991,19.9499507 92.5631925,19.3408916 93.2029652,18.5382436 L93.2029652,9.62889518 C93.2029652,9.55335184 93.219191,9.4896131 93.2516433,9.43767705 C93.2840955,9.38574101 93.346681,9.33852712 93.4394017,9.29603399 C93.5321224,9.25354086 93.6503395,9.22521254 93.7940565,9.21104816 C93.9377736,9.19688378 94.1255301,9.1898017 94.3573318,9.1898017 C94.5798615,9.1898017 94.7653001,9.19688378 94.9136531,9.21104816 C95.0620062,9.22521254 95.1779053,9.25354086 95.261354,9.29603399 C95.3448026,9.33852712 95.4073881,9.38574101 95.4491124,9.43767705 C95.4908367,9.4896131 95.5116985,9.55335184 95.5116985,9.62889518 L95.5116985,22.3767705 Z M111,15.8328612 C111,16.9376826 110.881783,17.9315348 110.645345,18.8144476 C110.408907,19.6973604 110.06121,20.4504218 109.602243,21.0736544 C109.143275,21.696887 108.580006,22.1737472 107.912417,22.5042493 C107.244828,22.8347514 106.479894,23 105.617591,23 C105.218893,23 104.850333,22.9598682 104.511903,22.8796034 C104.173472,22.7993386 103.842001,22.6695004 103.517479,22.490085 C103.192956,22.3106695 102.868439,22.0840429 102.543916,21.8101983 C102.219394,21.5363537 101.876333,21.2058565 101.514722,20.8186969 L101.514722,22.3767705 C101.514722,22.4523139 101.496178,22.5184133 101.45909,22.5750708 C101.422002,22.6317283 101.361734,22.6765815 101.278285,22.7096317 C101.194837,22.7426819 101.090528,22.7686496 100.965355,22.7875354 C100.840182,22.8064212 100.680241,22.815864 100.485528,22.815864 C100.300086,22.815864 100.142463,22.8064212 100.012654,22.7875354 C99.8828455,22.7686496 99.7762183,22.7426819 99.6927697,22.7096317 C99.6093211,22.6765815 99.5536895,22.6317283 99.5258733,22.5750708 C99.4980571,22.5184133 99.4841492,22.4523139 99.4841492,22.3767705 L99.4841492,3.45325779 C99.4841492,3.37771445 99.5003751,3.31161501 99.5328273,3.25495751 C99.5652795,3.1983 99.6255471,3.15108612 99.7136317,3.11331445 C99.8017164,3.07554278 99.9199335,3.04721445 100.068287,3.02832861 C100.21664,3.00944278 100.402078,3 100.624608,3 C100.85641,3 101.046484,3.00944278 101.194837,3.02832861 C101.34319,3.04721445 101.459089,3.07554278 101.542538,3.11331445 C101.625987,3.15108612 101.686254,3.1983 101.723342,3.25495751 C101.760431,3.31161501 101.778975,3.37771445 101.778975,3.45325779 L101.778975,11.0878187 C102.149857,10.7006591 102.509144,10.3748833 102.856847,10.1104816 C103.20455,9.84607989 103.545293,9.63125673 103.879087,9.46600567 C104.212882,9.3007546 104.546671,9.18035921 104.880466,9.10481586 C105.21426,9.02927252 105.566593,8.99150142 105.937476,8.99150142 C106.846139,8.99150142 107.622663,9.17563555 108.267072,9.54390935 C108.91148,9.91218314 109.435344,10.4055682 109.838679,11.0240793 C110.242014,11.6425904 110.536398,12.3673235 110.721839,13.1983003 C110.907281,14.0292771 111,14.9074552 111,15.8328612 Z M108.580002,16.101983 C108.580002,15.4504217 108.531325,14.8177557 108.433968,14.203966 C108.336611,13.5901763 108.167399,13.0472167 107.926325,12.5750708 C107.685251,12.1029249 107.36537,11.7228532 106.966671,11.4348442 C106.567972,11.1468352 106.071923,11.0028329 105.478511,11.0028329 C105.181805,11.0028329 104.889739,11.0453254 104.602305,11.1303116 C104.314871,11.2152979 104.022805,11.3569395 103.726099,11.5552408 C103.429393,11.7535421 103.121101,12.008497 102.801215,12.3201133 C102.481329,12.6317296 102.140585,13.0236048 101.778975,13.4957507 L101.778975,18.5807365 C102.409475,19.3644987 103.012151,19.9617543 103.587019,20.3725212 C104.161887,20.7832882 104.759926,20.9886686 105.381155,20.9886686 C105.956023,20.9886686 106.447435,20.8470269 106.855406,20.5637394 C107.263377,20.2804518 107.594849,19.9051015 107.849831,19.4376771 C108.104813,18.9702526 108.290251,18.4461785 108.406152,17.8654391 C108.522053,17.2846996 108.580002,16.6968868 108.580002,16.101983 Z" id="LNDhub" fill="#000000"></path>
                <g id="Group" transform="translate(48.000000, 0.000000)" fill="#7ECCDC" fill-rule="nonzero">
                    <path d="M15.6090525,0.0267040149 C15.3198552,0.0267040149 15.0306579,0.146729235 14.7827745,0.34677127 L0.77736207,12.4693185 C0.405536961,12.7893858 0.281595258,13.3094951 0.446850862,13.789596 C0.612106466,14.2696968 1.10787328,14.5497557 1.60364009,14.5497557 L6.23079701,14.5497557 L2.0994069,24.1917817 C1.8928374,24.711891 2.058093,25.3120171 2.51254591,25.6320844 C2.71911542,25.792118 2.96699883,25.8321264 3.21488223,25.8321264 C3.50407954,25.8321264 3.83459075,25.7121012 4.04116025,25.5120592 L18.2118283,12.9894278 C18.4597117,12.7893858 18.6249673,12.4293101 18.6249673,12.0692345 C18.6249673,11.3890916 18.0878866,10.8689823 17.3855503,10.8689823 L17.3855503,10.8689823 L12.8410212,10.8689823 L16.7658418,1.66704869 C16.9724113,1.14693941 16.8071557,0.546813304 16.3527028,0.226746049 C16.1048194,0.106720829 15.856936,0.0267040149 15.6090525,0.0267040149 L15.6090525,0.0267040149 Z" id="Path"></path>
                </g>
            </g>
        </g>
    </g>
</svg>