<?xml version="1.0" standalone="no"?>
<!DOCTYPE svg PUBLIC "-//W3C//DTD SVG 20010904//EN"
 "http://www.w3.org/TR/2001/REC-SVG-20010904/DTD/svg10.dtd">
<svg version="1.0" xmlns="http://www.w3.org/2000/svg"
 width="804.000000pt" height="804.000000pt" viewBox="0 0 804.000000 804.000000"
 preserveAspectRatio="xMidYMid meet">
<metadata>
Created by potrace 1.11, written by Peter Selinger 2001-2013
</metadata>
<g transform="translate(0.000000,804.000000) scale(0.100000,-0.100000)"
fill="#000000" stroke="none">
<path d="M1239 8036 c-2 -2 -24 -7 -49 -11 -182 -26 -392 -101 -518 -186 -24
-16 -46 -29 -51 -29 -4 0 -16 -8 -27 -17 -10 -10 -37 -31 -59 -48 -52 -39
-194 -180 -225 -225 -13 -19 -27 -37 -30 -40 -11 -9 -87 -134 -114 -188 -61
-121 -111 -278 -133 -422 -9 -64 -11 -5611 -1 -5685 3 -27 7 -51 8 -52 2 -2 3
-11 4 -20 2 -23 26 -123 33 -143 3 -8 7 -19 9 -25 20 -81 132 -312 157 -323 4
-2 7 -9 7 -15 0 -7 10 -24 23 -39 13 -15 32 -39 43 -54 17 -25 175 -185 206
-209 138 -109 274 -183 433 -236 58 -20 140 -41 175 -45 19 -2 60 -9 90 -14
45 -7 5567 -8 5632 -1 10 1 20 7 23 12 4 5 11 7 16 4 11 -8 150 27 239 60 127
46 252 115 360 199 68 52 230 211 230 225 0 5 7 14 15 21 20 16 90 123 87 132
-1 5 2 8 7 8 5 0 14 15 22 33 7 17 16 34 19 37 9 7 61 127 65 149 2 11 9 29
15 41 6 12 9 24 6 27 -3 4 -2 11 3 17 9 12 30 91 38 141 2 17 7 41 11 55 11
40 12 5596 1 5670 -5 36 -11 76 -13 90 -6 40 -27 120 -48 185 -22 72 -137 305
-149 305 -5 0 -9 5 -9 11 0 6 -15 30 -32 53 -18 22 -40 50 -48 60 -33 43 -168
173 -215 208 -27 21 -55 42 -62 48 -15 12 -195 115 -202 115 -3 0 -12 4 -19 9
-25 15 -213 76 -237 76 -13 0 -26 4 -29 8 -2 4 -21 9 -40 10 -20 2 -58 7 -84
12 -45 9 -5574 14 -5583 6z"/>
</g>
</svg>
