<?xml version="1.0" encoding="UTF-8"?>
<svg width="62px" height="62px" viewBox="0 0 62 62" version="1.1" xmlns="http://www.w3.org/2000/svg" xmlns:xlink="http://www.w3.org/1999/xlink">
    <!-- Generator: Sketch 63.1 (92452) - https://sketch.com -->
    <title>comms-icon</title>
    <desc>Created with Sketch.</desc>
    <g id="bluewallet" stroke="none" stroke-width="1" fill="none" fill-rule="evenodd">
        <g id="bluewallet-site" transform="translate(-925.000000, -4679.000000)" fill="#0070FF">
            <g id="about" transform="translate(0.000000, 3906.000000)">
                <g id="Group-13-Copy-2" transform="translate(925.000000, 773.000000)">
                    <g id="comms-icon">
                        <path d="M0,31 C0,48.1207833 13.8792167,62 31,62 C48.1207833,62 62,48.1207833 62,31 C62,13.8792167 48.1207833,0 31,0 C13.8792167,0 0,13.8792167 0,31 Z M25.3166667,45.2083333 L25.8440542,37.3063042 L25.8436667,37.3059167 L40.2184958,24.3337083 C40.8493458,23.7737708 40.0808042,23.5007125 39.2432875,24.0085958 L21.5027625,35.2008875 L13.8398208,32.8092375 C12.1849375,32.3025167 12.1730542,31.1653333 14.2113042,30.3478375 L44.0720542,18.8336625 C45.435925,18.2144375 46.7522625,19.1612292 46.2315917,21.2485625 L41.1463,45.2123375 C40.7912208,46.9152708 39.7622792,47.3225333 38.3366667,46.5359083 L30.5901542,40.8126625 L26.8666667,44.4333333 C26.8549125,44.4447 26.8432875,44.4560667 26.8316625,44.4674333 C26.4152292,44.8728875 26.0706125,45.2083333 25.3166667,45.2083333 Z" id="Shape"></path>
                    </g>
                </g>
            </g>
        </g>
    </g>
</svg>