<?xml version="1.0" encoding="UTF-8"?>
<svg width="70px" height="54px" viewBox="0 0 70 54" version="1.1" xmlns="http://www.w3.org/2000/svg" xmlns:xlink="http://www.w3.org/1999/xlink">
    <!-- Generator: Sketch 63.1 (92452) - https://sketch.com -->
    <title>docs-icon</title>
    <desc>Created with Sketch.</desc>
    <g id="bluewallet" stroke="none" stroke-width="1" fill="none" fill-rule="evenodd">
        <g id="bluewallet-site" transform="translate(-165.000000, -4685.000000)">
            <g id="about" transform="translate(0.000000, 3906.000000)">
                <g id="Group-13" transform="translate(162.000000, 765.000000)">
                    <g id="docs-icon">
                        <g id="Group">
                            <rect id="Rectangle" x="0" y="0" width="76" height="76"></rect>
                            <rect id="Rectangle" x="0" y="0" width="76" height="76"></rect>
                        </g>
                        <g id="Group" transform="translate(3.000000, 14.000000)" fill-rule="nonzero">
                            <path d="M52.5,0.583333333 C46.2954545,0.583333333 39.6136364,1.85 35,5.33333333 C30.3863636,1.85 23.7045455,0.583333333 17.5,0.583333333 C12.8863636,0.583333333 7.98636364,1.28 3.88181818,3.085 C1.55909091,4.13 0,6.37833333 0,8.94333333 L0,44.6633333 C0,48.78 3.88181818,51.82 7.89090909,50.8066667 C11.0090909,50.015 14.3181818,49.6666667 17.5,49.6666667 C22.4636364,49.6666667 27.7454545,50.49 32.0090909,52.58 C33.9181818,53.53 36.0818182,53.53 37.9590909,52.58 C42.2227273,50.4583333 47.5045455,49.6666667 52.4681818,49.6666667 C55.65,49.6666667 58.9590909,50.015 62.0772727,50.8066667 C66.0863636,51.8516667 69.9681818,48.8116667 69.9681818,44.6633333 L69.9681818,8.94333333 C69.9681818,6.37833333 68.4090909,4.13 66.0863636,3.085 C62.0136364,1.28 57.1136364,0.583333333 52.5,0.583333333 Z M63.6363636,40.895 C63.6363636,42.89 61.7909091,44.3466667 59.8181818,43.9983333 C57.4318182,43.555 54.95,43.365 52.5,43.365 C47.0909091,43.365 39.2954545,45.4233333 35,48.115 L35,11.6666667 C39.2954545,8.975 47.0909091,6.91666667 52.5,6.91666667 C55.4272727,6.91666667 58.3227273,7.20166667 61.0909091,7.80333333 C62.5545455,8.12 63.6363636,9.41833333 63.6363636,10.9066667 L63.6363636,40.895 Z" id="Shape" fill="#0070FF"></path>
                            <path d="M41.3,21.1983333 C40.2818182,21.1983333 39.3590909,20.565 39.0409091,19.5516667 C38.6272727,18.3166667 39.3272727,16.955 40.5681818,16.575 C45.4681818,14.9916667 51.8,14.485 57.6227273,15.15 C58.9272727,15.3083333 59.8818182,16.48 59.7227273,17.7783333 C59.5636364,19.0766667 58.3863636,20.0266667 57.0818182,19.8683333 C51.9272727,19.2666667 46.2954545,19.7416667 42.0318182,21.1033333 C41.7772727,21.135 41.5227273,21.1983333 41.3,21.1983333 Z" id="Path" fill="#153F88"></path>
                            <path d="M41.3,29.6216667 C40.2818182,29.6216667 39.3590909,28.9883333 39.0409091,27.975 C38.6272727,26.74 39.3272727,25.3783333 40.5681818,24.9983333 C45.4363636,23.415 51.8,22.9083333 57.6227273,23.5733333 C58.9272727,23.7316667 59.8818182,24.9033333 59.7227273,26.2016667 C59.5636364,27.5 58.3863636,28.45 57.0818182,28.2916667 C51.9272727,27.69 46.2954545,28.165 42.0318182,29.5266667 C41.7772727,29.59 41.5227273,29.6216667 41.3,29.6216667 Z" id="Path" fill="#153F88"></path>
                            <path d="M41.3,38.045 C40.2818182,38.045 39.3590909,37.4116667 39.0409091,36.3983333 C38.6272727,35.1633333 39.3272727,33.8016667 40.5681818,33.4216667 C45.4363636,31.8383333 51.8,31.3316667 57.6227273,31.9966667 C58.9272727,32.155 59.8818182,33.3266667 59.7227273,34.625 C59.5636364,35.9233333 58.3863636,36.8416667 57.0818182,36.715 C51.9272727,36.1133333 46.2954545,36.5883333 42.0318182,37.95 C41.7772727,38.0133333 41.5227273,38.045 41.3,38.045 Z" id="Path" fill="#153F88"></path>
                        </g>
                    </g>
                </g>
            </g>
        </g>
    </g>
</svg>