<?xml version="1.0" encoding="UTF-8"?>
<svg width="273px" height="64px" viewBox="0 0 273 64" version="1.1" xmlns="http://www.w3.org/2000/svg" xmlns:xlink="http://www.w3.org/1999/xlink">
    <!-- Generator: Sketch 52.6 (67491) - http://www.bohemiancoding.com/sketch -->
    <title>lndhub</title>
    <desc>Created with Sketch.</desc>
    <g id="Lightning" stroke="none" stroke-width="1" fill="none" fill-rule="evenodd">
        <g transform="translate(-948.000000, -2939.000000)" id="Group-9">
            <g transform="translate(0.000000, 2525.000000)">
                <g id="lndhub" transform="translate(948.000000, 361.000000)">
                    <path d="M24.3206379,104.614731 C24.3206379,105.294621 24.292133,105.866853 24.2351223,106.331445 C24.1781117,106.796036 24.0925969,107.181302 23.9785755,107.487252 C23.8645541,107.793203 23.7220296,108.014164 23.5509975,108.150142 C23.3799654,108.28612 23.180431,108.354108 22.9523883,108.354108 L2.66808686,108.354108 C1.91554578,108.354108 1.28273663,108.133147 0.769640441,107.691218 C0.256544248,107.24929 0,106.52975 0,105.532578 L0,65.5892351 C0,65.3626051 0.0741127828,65.1586411 0.222340572,64.9773371 C0.370568361,64.7960331 0.615710643,64.6487258 0.957774771,64.5354108 C1.2998389,64.4220958 1.76161855,64.3314451 2.34312757,64.2634561 C2.92463658,64.1954671 3.64866146,64.1614731 4.51522392,64.1614731 C5.40459066,64.1614731 6.13431652,64.1954671 6.7044234,64.2634561 C7.27453028,64.3314451 7.73060894,64.4220958 8.07267307,64.5354108 C8.4147372,64.6487258 8.65987948,64.7960331 8.80810727,64.9773371 C8.95633506,65.1586411 9.03044784,65.3626051 9.03044784,65.5892351 L9.03044784,100.977337 L22.9523883,100.977337 C23.180431,100.977337 23.3799654,101.039659 23.5509975,101.164306 C23.7220296,101.288952 23.8645541,101.492916 23.9785755,101.776204 C24.0925969,102.059492 24.1781117,102.433425 24.2351223,102.898017 C24.292133,103.362609 24.3206379,103.934841 24.3206379,104.614731 Z M65.457843,105.226629 C65.457843,105.747878 65.3666273,106.212463 65.1841931,106.620397 C65.0017589,107.028331 64.7566166,107.368271 64.4487589,107.640227 C64.1409012,107.912183 63.7760382,108.110481 63.3541591,108.235127 C62.9322801,108.359774 62.5047063,108.422096 62.0714251,108.422096 L58.240326,108.422096 C57.4421764,108.422096 56.7523574,108.342777 56.1708484,108.184136 C55.5893393,108.025495 55.0534469,107.736546 54.563155,107.31728 C54.0728631,106.898015 53.5996815,106.331448 53.143596,105.617564 C52.6875104,104.903679 52.174422,103.980176 51.6043151,102.847025 L40.5899052,82.2804533 C39.9513855,81.0566511 39.3014734,79.736551 38.6401494,78.3201133 C37.9788254,76.9036756 37.3859232,75.5269189 36.8614248,74.1898017 L36.7930124,74.1898017 C36.8842295,75.8215379 36.9526413,77.447584 36.9982498,79.0679887 C37.0438584,80.6883934 37.0666623,82.3597648 37.0666623,84.082153 L37.0666623,107.096317 C37.0666623,107.322947 37.0039515,107.526911 36.878528,107.708215 C36.7531044,107.889519 36.5364671,108.042492 36.2286094,108.167139 C35.9207517,108.291785 35.5045799,108.388102 34.9800815,108.456091 C34.4555832,108.52408 33.7828672,108.558074 32.9619133,108.558074 C32.1637636,108.558074 31.5024496,108.52408 30.9779512,108.456091 C30.4534529,108.388102 30.0429821,108.291785 29.7465265,108.167139 C29.450071,108.042492 29.2448356,107.889519 29.1308142,107.708215 C29.0167928,107.526911 28.959783,107.322947 28.959783,107.096317 L28.959783,67.5609065 C28.959783,66.4957454 29.2733371,65.6968865 29.9004546,65.1643059 C30.5275722,64.6317254 31.2972049,64.3654391 32.209376,64.3654391 L37.0324561,64.3654391 C37.8990185,64.3654391 38.6287444,64.4390927 39.2216555,64.5864023 C39.8145667,64.7337118 40.3447581,64.9773354 40.8122458,65.3172805 C41.2797334,65.6572255 41.7187091,66.1274758 42.1291861,66.7280453 C42.539663,67.3286149 42.9615358,68.0708171 43.394817,68.9546742 L52.01479,85.0339943 C52.516484,86.0085035 53.0124696,86.966001 53.5027615,87.9065156 C53.9930534,88.8470302 54.466235,89.7875307 54.9223205,90.7280453 C55.378406,91.6685599 55.8230827,92.5920635 56.256364,93.4985836 C56.6896452,94.4051037 57.111518,95.3116102 57.5219949,96.2181303 L57.5562012,96.2181303 C57.4877883,94.6317201 57.4364795,92.9773457 57.4022731,91.2549575 C57.3680667,89.5325693 57.3509637,87.8895262 57.3509637,86.325779 L57.3509637,65.6912181 C57.3509637,65.4645881 57.4193755,65.2606241 57.5562012,65.0793201 C57.6930268,64.8980161 57.9210661,64.7393775 58.240326,64.6033994 C58.5595858,64.4674214 58.9814586,64.3711051 59.5059569,64.3144476 C60.0304553,64.2577901 60.7031713,64.2294618 61.5241252,64.2294618 C62.2994706,64.2294618 62.9493827,64.2577901 63.473881,64.3144476 C63.9983793,64.3711051 64.4031491,64.4674214 64.6882026,64.6033994 C64.973256,64.7393775 65.1727904,64.8980161 65.2868118,65.0793201 C65.4008332,65.2606241 65.457843,65.4645881 65.457843,65.6912181 L65.457843,105.226629 Z M111.212891,85.713881 C111.212891,89.7478955 110.682699,93.1982859 109.6223,96.0651558 C108.561902,98.9320257 107.039739,101.271946 105.055767,103.084986 C103.071795,104.898026 100.660279,106.229458 97.8211471,107.07932 C94.9820148,107.929183 91.6013317,108.354108 87.6789964,108.354108 L77.1092676,108.354108 C76.3567265,108.354108 75.7239174,108.133147 75.2108212,107.691218 C74.697725,107.24929 74.4411808,106.52975 74.4411808,105.532578 L74.4411808,67.1869688 C74.4411808,66.1897967 74.697725,65.4702572 75.2108212,65.0283286 C75.7239174,64.5864001 76.3567265,64.3654391 77.1092676,64.3654391 L88.4657399,64.3654391 C92.4108795,64.3654391 95.7573567,64.824358 98.5052719,65.7422096 C101.253187,66.6600612 103.567786,68.019821 105.449139,69.8215297 C107.330492,71.6232385 108.761438,73.8498451 109.742022,76.5014164 C110.722606,79.1529878 111.212891,82.2237786 111.212891,85.713881 Z M101.908793,86.01983 C101.908793,83.9348338 101.663651,81.9971761 101.173359,80.2067989 C100.683067,78.4164216 99.8963311,76.8640292 98.8131281,75.5495751 C97.729925,74.2351209 96.3388851,73.2096354 94.6399666,72.4730878 C92.9410481,71.7365402 90.7119636,71.368272 87.9526463,71.368272 L83.4032161,71.368272 L83.4032161,101.283286 L88.0894713,101.283286 C90.552333,101.283286 92.6274909,100.966009 94.3150073,100.331445 C96.0025236,99.6968807 97.4106665,98.7393832 98.5394781,97.4589235 C99.6682898,96.1784639 100.512035,94.5864118 101.07074,92.6827195 C101.629445,90.7790273 101.908793,88.5580863 101.908793,86.01983 Z M198.900882,107.504249 C198.900882,107.685553 198.855274,107.838526 198.764057,107.963173 C198.67284,108.087819 198.524614,108.195467 198.319376,108.286119 C198.114137,108.376771 197.829088,108.444759 197.464219,108.490085 C197.099351,108.535411 196.643272,108.558074 196.09597,108.558074 C195.525863,108.558074 195.058382,108.535411 194.693514,108.490085 C194.328646,108.444759 194.043596,108.376771 193.838358,108.286119 C193.633119,108.195467 193.484894,108.087819 193.393677,107.963173 C193.30246,107.838526 193.256852,107.685553 193.256852,107.504249 L193.256852,89.5892351 C193.256852,87.8441839 193.120028,86.4390988 192.846377,85.3739377 C192.572726,84.3087765 192.173657,83.3909387 191.649158,82.6203966 C191.12466,81.8498545 190.446243,81.2606253 189.613887,80.8526912 C188.781531,80.4447572 187.818065,80.2407932 186.72346,80.2407932 C185.309594,80.2407932 183.895751,80.7393718 182.481886,81.7365439 C181.068021,82.733716 179.585765,84.1954578 178.035074,86.121813 L178.035074,107.504249 C178.035074,107.685553 177.989466,107.838526 177.898249,107.963173 C177.807032,108.087819 177.658807,108.195467 177.453568,108.286119 C177.24833,108.376771 176.96328,108.444759 176.598412,108.490085 C176.233544,108.535411 175.766063,108.558074 175.195956,108.558074 C174.648653,108.558074 174.192575,108.535411 173.827706,108.490085 C173.462838,108.444759 173.172088,108.376771 172.955447,108.286119 C172.738807,108.195467 172.590581,108.087819 172.510766,107.963173 C172.430951,107.838526 172.391044,107.685553 172.391044,107.504249 L172.391044,62.0878187 C172.391044,61.9065147 172.430951,61.747876 172.510766,61.611898 C172.590581,61.47592 172.738807,61.3626067 172.955447,61.2719547 C173.172088,61.1813027 173.462838,61.1133147 173.827706,61.0679887 C174.192575,61.0226627 174.648653,61 175.195956,61 C175.766063,61 176.233544,61.0226627 176.598412,61.0679887 C176.96328,61.1133147 177.24833,61.1813027 177.453568,61.2719547 C177.658807,61.3626067 177.807032,61.47592 177.898249,61.611898 C177.989466,61.747876 178.035074,61.9065147 178.035074,62.0878187 L178.035074,80.4107649 C179.654178,78.7110397 181.284659,77.4475962 182.926567,76.6203966 C184.568475,75.793197 186.22176,75.3796034 187.886472,75.3796034 C189.938857,75.3796034 191.666254,75.725209 193.068717,76.4164306 C194.47118,77.1076522 195.605676,78.0311557 196.472238,79.1869688 C197.338801,80.342782 197.960208,81.6968761 198.336479,83.2492918 C198.712749,84.8017075 198.900882,86.6770428 198.900882,88.8753541 L198.900882,107.504249 Z M234.90715,107.504249 C234.90715,107.685553 234.867244,107.838526 234.787429,107.963173 C234.707614,108.087819 234.565089,108.195467 234.359851,108.286119 C234.154612,108.376771 233.886666,108.444759 233.556004,108.490085 C233.225342,108.535411 232.820572,108.558074 232.341682,108.558074 C231.817184,108.558074 231.38961,108.535411 231.058948,108.490085 C230.728286,108.444759 230.466041,108.376771 230.272205,108.286119 C230.078368,108.195467 229.947246,108.087819 229.878833,107.963173 C229.81042,107.838526 229.776214,107.685553 229.776214,107.504249 L229.776214,103.458924 C228.020285,105.385279 226.287186,106.790364 224.576865,107.674221 C222.866545,108.558078 221.133446,109 219.377517,109 C217.325132,109 215.597734,108.66006 214.195271,107.98017 C212.792808,107.30028 211.658312,106.376776 210.79175,105.209632 C209.925187,104.042487 209.30378,102.682727 208.92751,101.130312 C208.551239,99.5778959 208.363107,97.6912292 208.363107,95.470255 L208.363107,76.9093484 C208.363107,76.7280444 208.403014,76.5750714 208.482829,76.4504249 C208.562644,76.3257784 208.71657,76.2124651 208.944613,76.1104816 C209.172656,76.0084981 209.469107,75.9405101 209.833975,75.9065156 C210.198844,75.8725211 210.654922,75.8555241 211.202225,75.8555241 C211.749527,75.8555241 212.205606,75.8725211 212.570475,75.9065156 C212.935343,75.9405101 213.226093,76.0084981 213.442734,76.1104816 C213.659374,76.2124651 213.813301,76.3257784 213.904518,76.4504249 C213.995735,76.5750714 214.041343,76.7280444 214.041343,76.9093484 L214.041343,94.7223796 C214.041343,96.5127568 214.172466,97.9461703 214.434715,99.0226629 C214.696964,100.099156 215.096033,101.016993 215.631933,101.776204 C216.167834,102.535415 216.846251,103.124644 217.667205,103.543909 C218.488158,103.963175 219.445924,104.172805 220.540529,104.172805 C221.954394,104.172805 223.362537,103.674226 224.765,102.677054 C226.167463,101.679882 227.655419,100.21814 229.228914,98.2917847 L229.228914,76.9093484 C229.228914,76.7280444 229.268821,76.5750714 229.348636,76.4504249 C229.428451,76.3257784 229.582378,76.2124651 229.81042,76.1104816 C230.038463,76.0084981 230.329213,75.9405101 230.68268,75.9065156 C231.036146,75.8725211 231.497925,75.8555241 232.068032,75.8555241 C232.615335,75.8555241 233.071414,75.8725211 233.436282,75.9065156 C233.80115,75.9405101 234.0862,76.0084981 234.291438,76.1104816 C234.496677,76.2124651 234.650603,76.3257784 234.753222,76.4504249 C234.855842,76.5750714 234.90715,76.7280444 234.90715,76.9093484 L234.90715,107.504249 Z M273,91.7988669 C273,94.4504382 272.70925,96.8356835 272.127741,98.9546742 C271.546232,101.073665 270.691084,102.881012 269.562273,104.376771 C268.433461,105.872529 267.048122,107.016993 265.406214,107.810198 C263.764306,108.603403 261.882982,109 259.762184,109 C258.781601,109 257.875144,108.903684 257.042788,108.711048 C256.210432,108.518413 255.395192,108.206801 254.597042,107.776204 C253.798892,107.345607 253.000755,106.801703 252.202605,106.144476 C251.404455,105.487249 250.56071,104.694056 249.671343,103.764873 L249.671343,107.504249 C249.671343,107.685553 249.625735,107.844192 249.534518,107.98017 C249.443301,108.116148 249.295075,108.223796 249.089837,108.303116 C248.884598,108.382437 248.628054,108.444759 248.320197,108.490085 C248.012339,108.535411 247.618971,108.558074 247.140081,108.558074 C246.683996,108.558074 246.296329,108.535411 245.977069,108.490085 C245.657809,108.444759 245.395564,108.382437 245.190325,108.303116 C244.985087,108.223796 244.848263,108.116148 244.77985,107.98017 C244.711438,107.844192 244.677232,107.685553 244.677232,107.504249 L244.677232,62.0878187 C244.677232,61.9065147 244.717139,61.747876 244.796954,61.611898 C244.876769,61.47592 245.024994,61.3626067 245.241635,61.2719547 C245.458275,61.1813027 245.749026,61.1133147 246.113894,61.0679887 C246.478762,61.0226627 246.934841,61 247.482144,61 C248.05225,61 248.519731,61.0226627 248.8846,61.0679887 C249.249468,61.1133147 249.534517,61.1813027 249.739756,61.2719547 C249.944994,61.3626067 250.09322,61.47592 250.184437,61.611898 C250.275654,61.747876 250.321262,61.9065147 250.321262,62.0878187 L250.321262,80.4107649 C251.233433,79.4815818 252.117085,78.6997199 252.972245,78.0651558 C253.827406,77.4305917 254.66545,76.9150161 255.486404,76.5184136 C256.307358,76.121811 257.1283,75.8328621 257.949254,75.6515581 C258.770208,75.4702541 259.636757,75.3796034 260.548928,75.3796034 C262.783747,75.3796034 264.693576,75.8215253 266.278473,76.7053824 C267.863371,77.5892395 269.151793,78.7733637 270.143779,80.2577904 C271.135765,81.7422171 271.85979,83.4815764 272.315875,85.4759207 C272.771961,87.4702649 273,89.5778926 273,91.7988669 Z M267.048114,92.4447592 C267.048114,90.881012 266.928393,89.3626136 266.688948,87.8895184 C266.449503,86.4164232 266.033332,85.1133201 265.440421,83.98017 C264.847509,82.8470198 264.060774,81.9348476 263.08019,81.2436261 C262.099606,80.5524045 260.879596,80.2067989 259.420122,80.2067989 C258.690385,80.2067989 257.972061,80.3087808 257.265129,80.5127479 C256.558196,80.7167149 255.839872,81.0566548 255.110136,81.5325779 C254.380399,82.008501 253.622168,82.6203929 252.83542,83.368272 C252.048673,84.116151 251.210628,85.0566516 250.321262,86.1898017 L250.321262,98.3937677 C251.871952,100.274797 253.354208,101.70821 254.768073,102.694051 C256.181938,103.679892 257.652792,104.172805 259.180678,104.172805 C260.594543,104.172805 261.803152,103.832865 262.80654,103.152975 C263.809928,102.473084 264.625169,101.572244 265.252286,100.450425 C265.879404,99.3286063 266.335482,98.0708285 266.620536,96.6770538 C266.905589,95.2832792 267.048114,93.8725284 267.048114,92.4447592 Z" id="LNDhub" fill="#FFFFFF"></path>
                    <g id="Group" transform="translate(56.000000, 0.000000)" fill="#7ECCDC" fill-rule="nonzero">
                        <path d="M99.7287274,53 C99.0314821,53 98.3342367,53.2960548 97.7365979,53.7894796 L63.9700031,83.6910183 C63.0735448,84.4804979 62.7747254,85.7634022 63.1731513,86.9476215 C63.5715772,88.1318409 64.7668549,88.8226355 65.9621326,88.8226355 L77.1180577,88.8226355 L67.1574103,112.605708 C66.6593779,113.888612 67.0578038,115.368886 68.153475,116.158366 C68.6515074,116.553105 69.2491462,116.65179 69.8467851,116.65179 C70.5440304,116.65179 71.3408822,116.355736 71.8389146,115.862311 L106.003935,84.9739226 C106.601574,84.4804979 107,83.5923334 107,82.7041689 C107,81.0265248 105.705116,79.7436205 104.011806,79.7436205 L93.0550936,79.7436205 L102.517709,57.0460828 C103.015741,55.7631785 102.617315,54.2829043 101.521644,53.4934247 C100.924005,53.1973699 100.326366,53 99.7287274,53 Z" id="Path"></path>
                    </g>
                </g>
            </g>
        </g>
    </g>
</svg>