<?xml version="1.0" encoding="UTF-8"?>
<svg width="103px" height="109px" viewBox="0 0 103 109" version="1.1" xmlns="http://www.w3.org/2000/svg" xmlns:xlink="http://www.w3.org/1999/xlink">
    <title>local-step4</title>
    <g id="LocalTrader" stroke="none" stroke-width="1" fill="none" fill-rule="evenodd">
        <g id="localtrader" transform="translate(-1092.000000, -2394.000000)">
            <g id="Group-8" transform="translate(159.000000, 2276.000000)">
                <g id="local-step4" transform="translate(933.000000, 118.000000)">
                    <path d="M36.923,108.846 C57.315,108.846 73.846,92.315 73.846,71.923 C73.846,51.531 57.315,35 36.923,35 C16.531,35 0,51.531 0,71.923 C0,92.315 16.531,108.846 36.923,108.846 Z" id="Path" fill-opacity="0.1" fill="#039BE5" fill-rule="nonzero"></path>
                    <path d="M78.513,62.026 C89.842,62.026 99.026,52.842 99.026,41.513 C99.026,30.184 89.842,21 78.513,21 C67.184,21 58,30.184 58,41.513 C58,52.842 67.184,62.026 78.513,62.026 Z" id="Path" fill-opacity="0.3" fill="#039BE5" fill-rule="nonzero"></path>
                    <g id="Group-16" transform="translate(70.000000, 46.000000)" fill-rule="nonzero">
                        <g id="Group-11" fill="#062453">
                            <path d="M16.5,16.8888889 C11.950125,16.8888889 8.25,13.1057778 8.25,8.44444444 C8.25,3.78311111 11.950125,0 16.5,0 C21.049875,0 24.75,3.78311111 24.75,8.44444444 C24.75,13.1057778 21.049875,16.8888889 16.5,16.8888889 Z" id="Path"></path>
                            <path d="M29.90625,38 L3.09375,38 C1.386,38 0,36.5813333 0,34.8333333 L0,32.7222222 C0,26.3171111 5.086125,21.1111111 11.34375,21.1111111 L21.65625,21.1111111 C27.913875,21.1111111 33,26.3171111 33,32.7222222 L33,34.8333333 C33,36.5813333 31.614,38 29.90625,38 Z" id="Path"></path>
                        </g>
                        <g id="Group" fill="#375788">
                            <path d="M16.372093,1.50003466e-15 C11.8574884,1.50003466e-15 8.18604651,3.78311111 8.18604651,8.44444444 C8.18604651,13.1057778 11.8574884,16.8888889 16.372093,16.8888889 L16.372093,1.50003466e-15 Z" id="Path"></path>
                            <path d="M16.372093,21.1111111 L11.255814,21.1111111 C5.04669767,21.1111111 2.93098879e-15,26.3171111 2.93098879e-15,32.7222222 L2.93098879e-15,34.8333333 C2.93098879e-15,36.5813333 1.37525581,38 3.06976744,38 L16.372093,38 L16.372093,21.1111111 Z" id="Path"></path>
                        </g>
                    </g>
                    <g id="Group-19" transform="translate(11.000000, 0.000000)">
                        <g id="arrow" transform="translate(3.500000, 0.000000)" fill-rule="nonzero">
                            <path d="M70.6706361,5.38815138 C66.2505575,15.5998019 47.3238883,59.3177838 43.2230163,68.7901413 C42.0071323,71.5931829 38.0976659,71.7706842 36.6347592,69.087456 C36.1318388,67.9433122 26.9801669,47.1206331 26.0334933,44.9665067 L1.91254395,34.3652408 C-0.770684236,32.9023341 -0.593182923,28.9928677 2.20985865,27.7769837 L65.6118486,0.329363948 C68.8113098,-1.05810465 72.0581047,2.18869021 70.6706361,5.38815138 Z" id="Path" fill="#28ABFA"></path>
                            <path d="M67.7563452,11.893401 L43.1499694,68.7953212 C41.9382974,71.5917925 38.0423738,71.7688778 36.5845349,69.091939 L27.3908629,48.1501316 C39.4953484,46.9403442 49.3607466,39.0190255 53.6172236,28.4921924 C55.0382112,24.9755744 55.8813698,21.1121643 58.2826031,18.1784519 C59.8141447,16.3087268 61.8792937,14.9540245 63.9901384,13.7778833 C65.2136028,13.0946293 66.4709705,12.4615495 67.7563452,11.893401 L67.7563452,11.893401 Z" id="Path" fill="#0070FF"></path>
                            <path d="M21.6578328,25.8631061 C23.0309767,25.5070827 24.064445,23.935933 25.4633776,24.171076 C25.8127792,24.2297515 26.1648334,24.4366598 26.2746201,24.7728305 C26.4231636,25.2273816 26.0759725,25.7032558 25.6710144,25.9588397 C25.2662037,26.2144236 24.7863844,26.3480978 24.4159097,26.6513279 C23.2798756,27.5814591 23.1031854,29.0368755 21.6672642,29.777157 C20.5696922,30.3430297 19.0515416,30.5036152 17.9461593,29.8443618 C16.9131331,29.2281958 16.6390349,28.2735062 17.2909761,27.2361709 C18.3577488,25.5394351 20.0766101,26.2730991 21.6578328,25.8631061 L21.6578328,25.8631061 Z" id="Path" fill="#FFFFFF"></path>
                            <path d="M32.1952104,23.2794642 C33.0021749,22.906124 33.9394104,22.9831209 34.8322285,23.0029159 C38.0647071,23.0748185 41.3131342,22.2703539 44.1197729,20.7029071 C44.9790544,20.2230229 45.8343116,19.6328106 46.2628345,18.7613922 C46.6913574,17.8899738 46.5320214,16.6778188 45.6825773,16.1814873 C45.3604771,15.9932889 44.9800978,15.9254618 44.6065749,15.8900927 C43.3743666,15.7730691 42.1117519,15.9764049 40.9832834,16.4734642 C39.1980943,17.2600258 38.2535553,18.4202189 35.1072284,20.3767256 C34.4090714,20.8109065 33.683489,21.2296589 32.8799527,21.4233883 C31.562487,21.7408366 27.8309842,21.5064983 28.1284908,23.8263022 C28.4438837,26.2852535 31.348151,23.6714351 32.1952104,23.2794642 L32.1952104,23.2794642 Z" id="Path" fill="#FFFFFF"></path>
                        </g>
                        <g id="Group-18" transform="translate(0.500000, 44.000000)" stroke-linecap="round" stroke-linejoin="round" stroke-width="2">
                            <line x1="16.9722222" y1="0.183098592" x2="4.69444444" y2="11.1690141" id="Line" stroke="#28ABFA"></line>
                            <line x1="25.8194444" y1="11.3521127" x2="13.5416667" y2="22.3380282" id="Line-Copy-2" stroke="#0070FF"></line>
                            <line x1="21.4861111" y1="5.85915493" x2="0.180555556" y2="25.6338028" id="Line-Copy" stroke="#0070FF"></line>
                        </g>
                    </g>
                </g>
            </g>
        </g>
    </g>
</svg>