<?xml version="1.0" encoding="UTF-8"?>
<svg width="132px" height="119px" viewBox="0 0 132 119" version="1.1" xmlns="http://www.w3.org/2000/svg" xmlns:xlink="http://www.w3.org/1999/xlink">
    <title>local-step2</title>
    <g id="LocalTrader" stroke="none" stroke-width="1" fill="none" fill-rule="evenodd">
        <g id="localtrader" transform="translate(-493.000000, -2396.000000)" fill-rule="nonzero">
            <g id="local-step2" transform="translate(493.000000, 2396.000000)">
                <path d="M36.923,118.846 C57.315,118.846 73.846,102.315 73.846,81.923 C73.846,61.531 57.315,45 36.923,45 C16.531,45 0,61.531 0,81.923 C0,102.315 16.531,118.846 36.923,118.846 Z" id="Path" fill-opacity="0.1" fill="#039BE5"></path>
                <path d="M102.513,41.026 C113.842,41.026 123.026,31.842 123.026,20.513 C123.026,9.184 113.842,0 102.513,0 C91.184,0 82,9.184 82,20.513 C82,31.842 91.184,41.026 102.513,41.026 Z" id="Path" fill-opacity="0.3" fill="#039BE5"></path>
                <g id="Group-13" transform="translate(31.000000, 0.000000)">
                    <g id="Group-15">
                        <g id="Group-10">
                            <path d="M50.3703704,36.5940594 C48.0491358,36.5940594 46.1728395,34.7246257 46.1728395,32.4118812 L46.1728395,20.9108911 C46.1728395,13.9935683 40.522963,8.36435644 33.5802469,8.36435644 C26.6375309,8.36435644 20.9876543,13.9935683 20.9876543,20.9108911 L20.9876543,32.4118812 C20.9876543,34.7246257 19.111358,36.5940594 16.7901235,36.5940594 C14.4688889,36.5940594 12.5925926,34.7246257 12.5925926,32.4118812 L12.5925926,20.9108911 C12.5925926,9.38062574 22.0076543,0 33.5802469,0 C45.1528395,0 54.5679012,9.38062574 54.5679012,20.9108911 L54.5679012,32.4118812 C54.5679012,34.7246257 52.6916049,36.5940594 50.3703704,36.5940594 Z" id="Path" fill="#C9D0D9"></path>
                            <path d="M58.4375,84 L9.5625,84 C4.2925,84 0,79.7353846 0,74.4996192 L0,38.6092917 C0,33.3735263 4.2925,29.1089109 9.5625,29.1089109 L58.4375,29.1089109 C63.7075,29.1089109 68,33.3735263 68,38.6092917 L68,74.4996192 C68,79.7353846 63.7075,84 58.4375,84 Z" id="Path" fill="#0070FF"></path>
                        </g>
                        <path d="M33.5802469,0 C22.0076543,0 12.5925926,9.32732673 12.5925926,20.7920792 L12.5925926,29.1089109 L20.9876543,29.1089109 L20.9876543,20.7920792 C20.9876543,13.9140594 26.6375309,8.31683168 33.5802469,8.31683168 L33.5802469,0 Z" id="Path" fill="#E3E7EE"></path>
                        <path d="M33.5802469,29.1089109 L20.9876543,29.1089109 L12.5925926,29.1089109 L9.44444444,29.1089109 C4.23950617,29.1089109 0,33.3735263 0,38.6092917 L0,74.4996192 C0,79.7353846 4.23950617,84 9.44444444,84 L33.5802469,84 L33.5802469,29.1089109 Z" id="Path" fill="#28ABFA"></path>
                    </g>
                    <g id="Group-16" transform="translate(68.000000, 63.000000)">
                        <g id="Group-11" fill="#062453">
                            <path d="M16.5,16.8888889 C11.950125,16.8888889 8.25,13.1057778 8.25,8.44444444 C8.25,3.78311111 11.950125,0 16.5,0 C21.049875,0 24.75,3.78311111 24.75,8.44444444 C24.75,13.1057778 21.049875,16.8888889 16.5,16.8888889 Z" id="Path"></path>
                            <path d="M29.90625,38 L3.09375,38 C1.386,38 0,36.5813333 0,34.8333333 L0,32.7222222 C0,26.3171111 5.086125,21.1111111 11.34375,21.1111111 L21.65625,21.1111111 C27.913875,21.1111111 33,26.3171111 33,32.7222222 L33,34.8333333 C33,36.5813333 31.614,38 29.90625,38 Z" id="Path"></path>
                        </g>
                        <g id="Group" fill="#375788">
                            <path d="M16.372093,1.50003466e-15 C11.8574884,1.50003466e-15 8.18604651,3.78311111 8.18604651,8.44444444 C8.18604651,13.1057778 11.8574884,16.8888889 16.372093,16.8888889 L16.372093,1.50003466e-15 Z" id="Path"></path>
                            <path d="M16.372093,21.1111111 L11.255814,21.1111111 C5.04669767,21.1111111 2.93098879e-15,26.3171111 2.93098879e-15,32.7222222 L2.93098879e-15,34.8333333 C2.93098879e-15,36.5813333 1.37525581,38 3.06976744,38 L16.372093,38 L16.372093,21.1111111 Z" id="Path"></path>
                        </g>
                    </g>
                </g>
            </g>
        </g>
    </g>
</svg>