<?xml version="1.0" encoding="UTF-8"?>
<svg width="131px" height="110px" viewBox="0 0 131 110" version="1.1" xmlns="http://www.w3.org/2000/svg" xmlns:xlink="http://www.w3.org/1999/xlink">
    <title>local-step3</title>
    <g id="LocalTrader" stroke="none" stroke-width="1" fill="none" fill-rule="evenodd">
        <g id="localtrader" transform="translate(-791.000000, -2276.000000)" fill-rule="nonzero">
            <g id="local-step3" transform="translate(791.000000, 2276.000000)">
                <g id="Group-17" transform="translate(39.000000, 79.000000)">
                    <path d="M67.6956817,1.20193974 C66.5780235,0.528111864 65.3004486,0.172160941 63.9973926,0.172160941 L57.0998949,0.172160941 C55.8451654,0.172160941 54.5948291,0.336854591 53.3822754,0.663585937 L41.7487887,3.79896554 L32.6071878,6.26494468 C30.4193192,6.86616552 28.8324553,8.77608184 28.6303631,11.0525747 C28.6127898,11.3368042 28.6127898,11.6210337 28.6303631,11.9052635 L8.08021302,0.715827563 C6.96431199,0.070334095 5.65422669,-0.148371969 4.39071065,0.0995541262 C3.91623309,0.184557359 3.45581413,0.336854591 3.02351236,0.552904701 C2.0561054,1.01953686 1.25212949,1.77216976 0.720538954,2.71074712 C0.250454654,3.53952864 0.00267181926,4.47722061 0,5.43085057 C-0.00699329555,7.37264311 1.01576943,9.17010719 2.68171284,10.1458736 L35.472505,29.9117816 C36.6103725,30.6227983 37.9230938,31 39.2621749,31 L64.6168496,31 C65.5227501,31 66.4198643,30.8273371 67.2625013,30.492637 L75,27.4094988 L75,5.61236783 L67.6956817,1.20193974 Z" id="Path" fill="#E3E7EE"></path>
                    <path d="M34.2060112,14.8590327 L52.8900172,9.64444444 L53.6697248,11.8033737 L36.0042557,16.7349289 C35.1797675,16.9419368 34.3456208,17.1049787 33.5044499,17.2222222 C31.6201565,17.2139786 29.8754731,16.184434 28.8990826,14.5027224 C29.7428877,15.0477216 30.7140098,15.3399142 31.7062054,15.3463261 C32.5473763,15.2290825 33.381523,15.0660407 34.2060112,14.8590327 L34.2060112,14.8590327 Z" id="Path" fill="#C9D0D9"></path>
                </g>
                <path d="M53,33 L85,33 C87.209139,33 89,34.790861 89,37 L89,72 C89,74.209139 87.209139,76 85,76 L53,76 L53,76 L53,33 Z" id="Path" fill="#28ABFA"></path>
                <path d="M18,33 L54,33 L54,76 L22,76 C19.790861,76 18,74.209139 18,72 L18,33 L18,33 Z" id="Path" fill="#28ABFA"></path>
                <path d="M34.0625,39 C34.0625,44.0047303 30.0047303,48.0625 25,48.0625 L25,58.9375 C30.0047303,58.9375 34.0625,62.9952697 34.0625,68 L54,68 L54,39 L34.0625,39 Z" id="Path" fill="#0070FF"></path>
                <path d="M72.9375,39 L53,39 L53,68 L72.9375,68 C72.9375,62.9952697 76.9952697,58.9375 82,58.9375 L82,48.0625 C76.9952697,48.0625 72.9375,44.0047303 72.9375,39 Z" id="Path" fill="#0070FF"></path>
                <path d="M61,54 C61,57.8657227 57.8657227,61 54,61 C50.1342773,61 47,57.8657227 47,54 C47,50.1342773 50.1342773,47 54,47 C57.8657227,47 61,50.1342773 61,54 Z" id="Path" fill="#28ABFA"></path>
                <path d="M45.0988525,39.1962961 L37.8101491,32.1308641 L58,32.1308641 L47.6915382,22.1381767 C44.9582744,19.4886397 41.2498618,18 37.3839663,18 L14.4750874,18 C13.3442352,18.0008625 12.2276186,18.2561564 11.2151009,18.7451823 L7.13033085,20.7254352 C6.03773689,21.2549977 4.82591888,21.5102917 3.60609309,21.4671676 L0,21.340383 L0,48.0280862 L5.46652758,48.0280862 L7.03334964,49.0345998 C10.3315948,51.1718239 14.2615511,52.202487 18.2217586,51.9670301 L18.2217586,40.3339067 C21.8038288,41.221398 25.6083329,40.3692683 28.4261213,38.0483359 L37.9925446,47.3217154 C40.1305762,49.3942537 43.5978707,49.3942537 45.736792,47.3217154 C47.8748236,45.2483147 47.8748236,41.8872322 45.736792,39.8146939 L45.0988525,39.1962961 Z" id="Path" fill="#E3E7EE"></path>
                <polygon id="Path" fill="#C9D0D9" points="37.1183883 33 32 28 33.8816117 28 39 33"></polygon>
                <path d="M14,39 C15.1775626,39.9559068 16.5423728,40.638935 18,41" id="Path" fill="#EBE5DD"></path>
                <polyline id="Path" fill="#C9D0D9" points="14 38.9594819 13 38 13 40.0405181 14 41"></polyline>
                <path d="M14,39 C15.1775626,40.032345 16.5423728,40.7699909 18,41.1599281 L18,43 C16.5423728,42.6100628 15.1775626,41.8724168 14,40.8400719" id="Path" fill="#C9D0D9"></path>
                <path d="M93.923,73.846 C114.315,73.846 130.846,57.315 130.846,36.923 C130.846,16.531 114.315,0 93.923,0 C73.531,0 57,16.531 57,36.923 C57,57.315 73.531,73.846 93.923,73.846 Z" id="Path" fill-opacity="0.1" fill="#039BE5"></path>
            </g>
        </g>
    </g>
</svg>