<?xml version="1.0" encoding="UTF-8"?>
<svg width="136px" height="78px" viewBox="0 0 136 78" version="1.1" xmlns="http://www.w3.org/2000/svg" xmlns:xlink="http://www.w3.org/1999/xlink">
    <!-- Generator: Sketch 53.2 (72643) - https://sketchapp.com -->
    <title>logo-bluewallet</title>
    <desc>Created with Sketch.</desc>
    <defs>
        <linearGradient x1="50%" y1="2.83824061%" x2="50%" y2="100%" id="linearGradient-1">
            <stop stop-color="#174697" offset="0%"></stop>
            <stop stop-color="#0C2550" offset="100%"></stop>
        </linearGradient>
        <linearGradient x1="50%" y1="0%" x2="50%" y2="97.8843027%" id="linearGradient-2">
            <stop stop-color="#3F78DC" offset="0%"></stop>
            <stop stop-color="#2F5FB3" offset="100%"></stop>
        </linearGradient>
        <linearGradient x1="50%" y1="2.72534321%" x2="50%" y2="100%" id="linearGradient-3">
            <stop stop-color="#8BD7F9" offset="0%"></stop>
            <stop stop-color="#68BBE1" offset="100%"></stop>
        </linearGradient>
    </defs>
    <g id="Page-1" stroke="none" stroke-width="1" fill="none" fill-rule="evenodd">
        <g id="logo-bluewallet" fill-rule="nonzero">
            <g id="Group-2">
                <g id="Group">
                    <rect id="Rectangle-Copy" fill="url(#linearGradient-1)" x="0" y="0" width="77" height="77" rx="17"></rect>
                    <rect id="Rectangle-Copy-2" fill="url(#linearGradient-2)" x="0" y="18" width="77" height="58" rx="17"></rect>
                    <rect id="Rectangle-Copy-3" fill="url(#linearGradient-3)" x="0" y="37" width="77" height="41" rx="17"></rect>
                    <path d="M41.9496127,60.1953125 C41.9496127,60.970056 41.8649781,61.6666636 41.6957064,62.2851562 C41.5264347,62.9036489 41.2822966,63.4309874 40.9632845,63.8671875 C40.6442725,64.3033876 40.2520239,64.6386707 39.7865267,64.8730469 C39.3210296,65.107423 38.7920635,65.2246094 38.1996127,65.2246094 C37.9066425,65.2246094 37.6332077,65.1969404 37.3793002,65.1416016 C37.1253927,65.0862627 36.8828821,64.9967454 36.6517611,64.8730469 C36.4206402,64.7493483 36.1927779,64.5930999 35.9681674,64.4042969 C35.7435569,64.2154938 35.514067,63.9876315 35.2796908,63.7207031 L35.2796908,64.6679688 C35.2796908,64.7395837 35.2617873,64.7998044 35.2259799,64.8486328 C35.1901724,64.8974612 35.1315792,64.9381509 35.0501986,64.9707031 C34.968818,65.0032554 34.8597696,65.0260416 34.7230502,65.0390625 C34.5863307,65.0520834 34.4203168,65.0585938 34.2250033,65.0585938 C34.0231794,65.0585938 33.8555378,65.0520834 33.7220736,65.0390625 C33.5886094,65.0260416 33.4811886,65.0032554 33.399808,64.9707031 C33.3184274,64.9381509 33.2614618,64.8974612 33.2289095,64.8486328 C33.1963573,64.7998044 33.1800814,64.7395837 33.1800814,64.6679688 L33.1800814,51.8261719 C33.1800814,51.7610674 33.1996125,51.7024742 33.2386752,51.6503906 C33.2777379,51.598307 33.344469,51.5543622 33.4388705,51.5185547 C33.533272,51.4827472 33.6585963,51.4550782 33.814847,51.4355469 C33.9710978,51.4160155 34.1696635,51.40625 34.4105502,51.40625 C34.6514368,51.40625 34.8500025,51.4160155 35.0062533,51.4355469 C35.1625041,51.4550782 35.2878283,51.4827472 35.3822299,51.5185547 C35.4766314,51.5543622 35.5433625,51.598307 35.5824252,51.6503906 C35.6214879,51.7024742 35.6410189,51.7610674 35.6410189,51.8261719 L35.6410189,56.640625 C35.8623742,56.4192697 36.0837261,56.2304695 36.3050814,56.0742188 C36.5264367,55.917968 36.7477886,55.7893885 36.9691439,55.6884766 C37.1904992,55.5875646 37.4183615,55.5143231 37.6527377,55.46875 C37.8871138,55.4231769 38.1345072,55.4003906 38.3949252,55.4003906 C39.0394596,55.4003906 39.5863292,55.5289701 40.0355502,55.7861328 C40.4847712,56.0432956 40.8509784,56.3899718 41.134183,56.8261719 C41.4173875,57.262372 41.6240912,57.771807 41.7543002,58.3544922 C41.8845092,58.9371774 41.9496127,59.550778 41.9496127,60.1953125 Z M39.4007845,60.3710938 C39.4007845,59.9999981 39.3731156,59.6419288 39.3177767,59.296875 C39.2624379,58.9518212 39.1664102,58.6458347 39.0296908,58.3789062 C38.8929714,58.1119778 38.7155643,57.8987638 38.4974642,57.7392578 C38.2793642,57.5797518 38.0043018,57.5 37.6722689,57.5 C37.5095077,57.5 37.3500041,57.5227862 37.1937533,57.5683594 C37.0375025,57.6139325 36.8763713,57.6920567 36.7103549,57.8027344 C36.5443384,57.913412 36.3734417,58.0566397 36.1976595,58.2324219 C36.0218774,58.408204 35.8363324,58.6263008 35.6410189,58.8867188 L35.6410189,61.7773438 C35.9860727,62.2200543 36.3164731,62.556965 36.6322299,62.7880859 C36.9479866,63.0192069 37.278387,63.1347656 37.6234408,63.1347656 C37.9424528,63.1347656 38.2126324,63.0533862 38.4339877,62.890625 C38.6553429,62.7278638 38.8392604,62.5162773 38.9857455,62.2558594 C39.1322306,61.9954414 39.2380238,61.6992204 39.3031283,61.3671875 C39.3682328,61.0351546 39.4007845,60.7031267 39.4007845,60.3710938 Z M46.2873063,64.6679688 C46.2873063,64.7330732 46.2677753,64.7900388 46.2287126,64.8388672 C46.1896499,64.8876956 46.1229188,64.9283853 46.0285173,64.9609375 C45.9341158,64.9934897 45.8087915,65.0179036 45.6525407,65.0341797 C45.4962899,65.0504558 45.2977242,65.0585938 45.0568376,65.0585938 C44.815951,65.0585938 44.6173852,65.0504558 44.4611345,65.0341797 C44.3048837,65.0179036 44.1795594,64.9934897 44.0851579,64.9609375 C43.9907564,64.9283853 43.9240253,64.8876956 43.8849626,64.8388672 C43.8458999,64.7900388 43.8263688,64.7330732 43.8263688,64.6679688 L43.8263688,51.8261719 C43.8263688,51.7610674 43.8458999,51.7024742 43.8849626,51.6503906 C43.9240253,51.598307 43.9907564,51.5543622 44.0851579,51.5185547 C44.1795594,51.4827472 44.3048837,51.4550782 44.4611345,51.4355469 C44.6173852,51.4160155 44.815951,51.40625 45.0568376,51.40625 C45.2977242,51.40625 45.4962899,51.4160155 45.6525407,51.4355469 C45.8087915,51.4550782 45.9341158,51.4827472 46.0285173,51.5185547 C46.1229188,51.5543622 46.1896499,51.598307 46.2287126,51.6503906 C46.2677753,51.7024742 46.2873063,51.7610674 46.2873063,51.8261719 L46.2873063,64.6679688 Z M56.9140625,64.6679688 C56.9140625,64.7330732 56.8977866,64.7900388 56.8652344,64.8388672 C56.8326821,64.8876956 56.7757166,64.9283853 56.6943359,64.9609375 C56.6129553,64.9934897 56.5055345,65.0179036 56.3720703,65.0341797 C56.2386061,65.0504558 56.0709646,65.0585938 55.8691406,65.0585938 C55.6542958,65.0585938 55.4801439,65.0504558 55.3466797,65.0341797 C55.2132155,65.0179036 55.1074223,64.9934897 55.0292969,64.9609375 C54.9511715,64.9283853 54.8958335,64.8876956 54.8632812,64.8388672 C54.830729,64.7900388 54.8144531,64.7330732 54.8144531,64.6679688 L54.8144531,63.6621094 C54.3326799,64.1829453 53.8427759,64.5735664 53.3447266,64.8339844 C52.8466772,65.0944023 52.3307318,65.2246094 51.796875,65.2246094 C51.1979137,65.2246094 50.694989,65.1269541 50.2880859,64.9316406 C49.8811829,64.7363271 49.5524101,64.4694027 49.3017578,64.1308594 C49.0511055,63.792316 48.8720708,63.4000673 48.7646484,62.9541016 C48.657226,62.5081358 48.6035156,61.9531283 48.6035156,61.2890625 L48.6035156,55.9570312 C48.6035156,55.8919268 48.6214191,55.8349612 48.6572266,55.7861328 C48.693034,55.7373044 48.7581375,55.6966147 48.8525391,55.6640625 C48.9469406,55.6315103 49.0738924,55.6070964 49.2333984,55.5908203 C49.3929044,55.5745442 49.5898426,55.5664062 49.8242187,55.5664062 C50.0651054,55.5664062 50.2636711,55.5745442 50.4199219,55.5908203 C50.5761727,55.6070964 50.7014969,55.6315103 50.7958984,55.6640625 C50.8903,55.6966147 50.9570311,55.7373044 50.9960937,55.7861328 C51.0351564,55.8349612 51.0546875,55.8919268 51.0546875,55.9570312 L51.0546875,60.8789062 C51.0546875,61.3346377 51.0839841,61.6829415 51.1425781,61.9238281 C51.2011722,62.1647147 51.2906895,62.3714184 51.4111328,62.5439453 C51.5315761,62.7164722 51.6845694,62.8499344 51.8701172,62.9443359 C52.055665,63.0387375 52.2721342,63.0859375 52.5195312,63.0859375 C52.8320328,63.0859375 53.1461573,62.9720063 53.4619141,62.7441406 C53.7776708,62.5162749 54.1145815,62.184247 54.4726562,61.7480469 L54.4726562,55.9570312 C54.4726562,55.8919268 54.4905597,55.8349612 54.5263672,55.7861328 C54.5621747,55.7373044 54.6272782,55.6966147 54.7216797,55.6640625 C54.8160812,55.6315103 54.9414055,55.6070964 55.0976562,55.5908203 C55.253907,55.5745442 55.4524728,55.5664062 55.6933594,55.5664062 C55.934246,55.5664062 56.1328117,55.5745442 56.2890625,55.5908203 C56.4453133,55.6070964 56.56901,55.6315103 56.6601562,55.6640625 C56.7513025,55.6966147 56.8164061,55.7373044 56.8554687,55.7861328 C56.8945314,55.8349612 56.9140625,55.8919268 56.9140625,55.9570312 L56.9140625,64.6679688 Z M67.3455062,60.0585938 C67.3455062,60.3580744 67.2787751,60.5794264 67.1453109,60.7226562 C67.0118466,60.8658861 66.8279292,60.9375 66.593553,60.9375 L61.2908187,60.9375 C61.2908187,61.3085956 61.3347635,61.6455063 61.4226546,61.9482422 C61.5105457,62.2509781 61.6505182,62.508137 61.8425765,62.7197266 C62.0346347,62.9313162 62.2820281,63.0924474 62.584764,63.203125 C62.8874999,63.3138026 63.250452,63.3691406 63.6736312,63.3691406 C64.1033208,63.3691406 64.4809212,63.3382165 64.8064437,63.2763672 C65.1319661,63.2145179 65.4135388,63.1461592 65.6511702,63.0712891 C65.8888016,62.9964189 66.0857398,62.9280602 66.2419905,62.8662109 C66.3982413,62.8043617 66.5251932,62.7734375 66.6228499,62.7734375 C66.681444,62.7734375 66.7302716,62.7848306 66.7693343,62.8076172 C66.808397,62.8304038 66.8409487,62.8710935 66.8669905,62.9296875 C66.8930323,62.9882815 66.9109358,63.0712885 66.9207015,63.1787109 C66.9304672,63.2861333 66.9353499,63.4212231 66.9353499,63.5839844 C66.9353499,63.7272143 66.9320947,63.8492833 66.9255843,63.9501953 C66.9190738,64.0511073 66.9093083,64.1373694 66.8962874,64.2089844 C66.8832665,64.2805993 66.8637355,64.3408201 66.8376937,64.3896484 C66.8116519,64.4384768 66.7774725,64.4856769 66.7351546,64.53125 C66.6928367,64.5768231 66.5772779,64.6386715 66.3884749,64.7167969 C66.1996719,64.7949223 65.9587889,64.8714189 65.6658187,64.9462891 C65.3728485,65.0211592 65.0375653,65.0862627 64.6599593,65.1416016 C64.2823532,65.1969404 63.8787114,65.2246094 63.4490218,65.2246094 C62.6742783,65.2246094 61.9955742,65.1269541 61.412889,64.9316406 C60.8302038,64.7363271 60.343555,64.4401062 59.952928,64.0429688 C59.5623011,63.6458313 59.2709629,63.1445343 59.0789046,62.5390625 C58.8868464,61.9335907 58.7908187,61.2239624 58.7908187,60.4101562 C58.7908187,59.6354128 58.8917291,58.9371776 59.093553,58.3154297 C59.295377,57.6936818 59.5883428,57.1663433 59.9724593,56.7333984 C60.3565758,56.3004536 60.8236935,55.9700532 61.3738265,55.7421875 C61.9239594,55.5143218 62.5440704,55.4003906 63.234178,55.4003906 C63.9633484,55.4003906 64.5867145,55.5078114 65.1042952,55.7226562 C65.6218759,55.9375011 66.0466764,56.2353497 66.3787093,56.6162109 C66.7107422,56.9970722 66.9548804,57.4479141 67.1111312,57.96875 C67.2673819,58.4895859 67.3455062,59.0559865 67.3455062,59.6679688 L67.3455062,60.0585938 Z M64.9626937,59.3554688 C64.982225,58.6653611 64.84388,58.1233744 64.5476546,57.7294922 C64.2514292,57.33561 63.794077,57.1386719 63.1755843,57.1386719 C62.8630827,57.1386719 62.5912755,57.197265 62.3601546,57.3144531 C62.1290337,57.4316412 61.9369783,57.5895172 61.7839827,57.7880859 C61.6309872,57.9866546 61.5138008,58.2210273 61.4324202,58.4912109 C61.3510396,58.7613946 61.3038396,59.0494776 61.2908187,59.3554688 L64.9626937,59.3554688 Z" id="blue" fill="#FFFFFF"></path>
                </g>
                <path d="M99.6939503,55.9375 C99.6939503,56.0091149 99.6841847,56.0970047 99.6646534,56.2011719 C99.645122,56.3053391 99.6093151,56.4550771 99.5572315,56.6503906 L97.2330128,64.53125 C97.2004605,64.6419276 97.1581432,64.731445 97.1060596,64.7998047 C97.053976,64.8681644 96.9742242,64.9218748 96.8668018,64.9609375 C96.7593794,65.0000002 96.6063861,65.0260416 96.4078174,65.0390625 C96.2092487,65.0520834 95.9504623,65.0585938 95.6314503,65.0585938 C95.3124382,65.0585938 95.0520242,65.0504558 94.8502003,65.0341797 C94.6483763,65.0179036 94.4905003,64.9902346 94.3765674,64.9511719 C94.2626346,64.9121092 94.1796276,64.8583988 94.127544,64.7900391 C94.0754604,64.7216793 94.0363983,64.6354172 94.0103565,64.53125 L92.5455128,59.2382812 L92.5259815,59.1503906 L92.5064503,59.2382812 L91.158794,64.53125 C91.1327522,64.6419276 91.0953177,64.731445 91.0464893,64.7998047 C90.9976609,64.8681644 90.914654,64.9218748 90.7974659,64.9609375 C90.6802778,65.0000002 90.5207742,65.0260416 90.3189503,65.0390625 C90.1171263,65.0520834 89.8567123,65.0585938 89.5377003,65.0585938 C89.2121778,65.0585938 88.9501361,65.0504558 88.7515674,65.0341797 C88.5529987,65.0179036 88.3967503,64.9902346 88.2828174,64.9511719 C88.1688846,64.9121092 88.0858776,64.8583988 88.033794,64.7900391 C87.9817104,64.7216793 87.9426483,64.6354172 87.9166065,64.53125 L85.611919,56.6503906 C85.553325,56.4615876 85.5158904,56.3134771 85.4996143,56.2060547 C85.4833382,56.0986323 85.4752003,56.0091149 85.4752003,55.9375 C85.4752003,55.8723955 85.4931037,55.8154299 85.5289112,55.7666016 C85.5647187,55.7177732 85.6298222,55.6787111 85.7242237,55.6494141 C85.8186252,55.620117 85.9455771,55.5989584 86.1050831,55.5859375 C86.2645891,55.5729166 86.4647824,55.5664062 86.705669,55.5664062 C86.966087,55.5664062 87.1776734,55.5729166 87.3404346,55.5859375 C87.5031959,55.5989584 87.6301477,55.6217446 87.721294,55.6542969 C87.8124403,55.6868491 87.8759162,55.730794 87.9117237,55.7861328 C87.9475312,55.8414716 87.9752002,55.9082027 87.9947315,55.9863281 L89.7232471,62.3828125 L89.7427784,62.5 L89.7623096,62.3828125 L91.3834034,55.9863281 C91.4029347,55.9082027 91.4338589,55.8414716 91.4761768,55.7861328 C91.5184947,55.730794 91.5819707,55.6868491 91.6666065,55.6542969 C91.7512423,55.6217446 91.8700563,55.5989584 92.0230518,55.5859375 C92.1760474,55.5729166 92.3729855,55.5664062 92.6138721,55.5664062 C92.8547588,55.5664062 93.0500693,55.5745442 93.1998096,55.5908203 C93.34955,55.6070964 93.4683639,55.6298827 93.5562549,55.6591797 C93.644146,55.6884767 93.7059943,55.7275388 93.7418018,55.7763672 C93.7776093,55.8251956 93.8052783,55.8821611 93.8248096,55.9472656 L95.5630909,62.3925781 L95.5923878,62.5 L95.611919,62.3828125 L97.2720753,55.9863281 C97.2850962,55.9082027 97.3111376,55.8414716 97.3502003,55.7861328 C97.389263,55.730794 97.4543665,55.6868491 97.5455128,55.6542969 C97.636659,55.6217446 97.7603557,55.5989584 97.9166065,55.5859375 C98.0728573,55.5729166 98.271423,55.5664062 98.5123096,55.5664062 C98.7531963,55.5664062 98.9501344,55.5729166 99.1031299,55.5859375 C99.2561255,55.5989584 99.376567,55.620117 99.4644581,55.6494141 C99.5523491,55.6787111 99.6125699,55.7177732 99.6451221,55.7666016 C99.6776744,55.8154299 99.6939503,55.8723955 99.6939503,55.9375 Z M108.387113,64.6972656 C108.387113,64.7884119 108.354561,64.8600258 108.289456,64.9121094 C108.224352,64.964193 108.121814,65.0016275 107.981839,65.0244141 C107.841865,65.0472006 107.635161,65.0585938 107.361722,65.0585938 C107.068752,65.0585938 106.855538,65.0472006 106.722074,65.0244141 C106.588609,65.0016275 106.494209,64.964193 106.43887,64.9121094 C106.383532,64.8600258 106.355863,64.7884119 106.355863,64.6972656 L106.355863,64.0039062 C105.997788,64.3880228 105.589263,64.6874989 105.130277,64.9023438 C104.67129,65.1171886 104.161855,65.2246094 103.601956,65.2246094 C103.139715,65.2246094 102.714914,65.1643886 102.327542,65.0439453 C101.940171,64.923502 101.604888,64.7444673 101.321683,64.5068359 C101.038478,64.2692045 100.818754,63.9746111 100.662503,63.6230469 C100.506253,63.2714826 100.428128,62.8613305 100.428128,62.3925781 C100.428128,61.8847631 100.527411,61.4436868 100.72598,61.0693359 C100.924549,60.6949851 101.22077,60.3857434 101.614652,60.1416016 C102.008534,59.8974597 102.498438,59.7167975 103.084378,59.5996094 C103.670319,59.4824213 104.35065,59.4238281 105.125394,59.4238281 L105.975003,59.4238281 L105.975003,58.8964844 C105.975003,58.6230455 105.947334,58.3837901 105.891995,58.1787109 C105.836657,57.9736318 105.745512,57.8027351 105.618558,57.6660156 C105.491604,57.5292962 105.322335,57.4283857 105.110745,57.3632812 C104.899156,57.2981768 104.637114,57.265625 104.324613,57.265625 C103.914454,57.265625 103.548247,57.3111975 103.22598,57.4023438 C102.903713,57.49349 102.618885,57.5944005 102.371488,57.7050781 C102.124091,57.8157558 101.917387,57.9166662 101.75137,58.0078125 C101.585354,58.0989588 101.450264,58.1445312 101.346097,58.1445312 C101.274482,58.1445312 101.211006,58.121745 101.155667,58.0761719 C101.100329,58.0305987 101.054756,57.9654952 101.018949,57.8808594 C100.983141,57.7962235 100.955472,57.6920579 100.935941,57.5683594 C100.916409,57.4446608 100.906644,57.3079435 100.906644,57.1582031 C100.906644,56.9563792 100.92292,56.7968756 100.955472,56.6796875 C100.988024,56.5624994 101.049873,56.4567062 101.141019,56.3623047 C101.232165,56.2679032 101.391669,56.1637375 101.619535,56.0498047 C101.8474,55.9358718 102.114325,55.8300786 102.420316,55.7324219 C102.726307,55.6347651 103.059962,55.5550133 103.421292,55.4931641 C103.782622,55.4313148 104.15534,55.4003906 104.539456,55.4003906 C105.223054,55.4003906 105.807358,55.4671217 106.292386,55.6005859 C106.777415,55.7340501 107.176174,55.9391262 107.488675,56.2158203 C107.801177,56.4925144 108.029039,56.8489562 108.172269,57.2851562 C108.315499,57.7213563 108.387113,58.2389293 108.387113,58.8378906 L108.387113,64.6972656 Z M105.975003,60.9667969 L105.037503,60.9667969 C104.640366,60.9667969 104.301828,60.9960935 104.021878,61.0546875 C103.741929,61.1132815 103.514067,61.2011713 103.338285,61.3183594 C103.162502,61.4355475 103.033923,61.5771476 102.952542,61.7431641 C102.871162,61.9091805 102.830472,62.0996083 102.830472,62.3144531 C102.830472,62.6790383 102.946031,62.9654938 103.177152,63.1738281 C103.408273,63.3821625 103.728907,63.4863281 104.139066,63.4863281 C104.48412,63.4863281 104.801499,63.3984384 105.091214,63.2226562 C105.380929,63.0468741 105.675523,62.7897152 105.975003,62.4511719 L105.975003,60.9667969 Z M113.213088,64.6679688 C113.213088,64.7330732 113.193557,64.7900388 113.154494,64.8388672 C113.115431,64.8876956 113.0487,64.9283853 112.954299,64.9609375 C112.859897,64.9934897 112.734573,65.0179036 112.578322,65.0341797 C112.422071,65.0504558 112.223505,65.0585938 111.982619,65.0585938 C111.741732,65.0585938 111.543166,65.0504558 111.386916,65.0341797 C111.230665,65.0179036 111.105341,64.9934897 111.010939,64.9609375 C110.916538,64.9283853 110.849807,64.8876956 110.810744,64.8388672 C110.771681,64.7900388 110.75215,64.7330732 110.75215,64.6679688 L110.75215,51.8261719 C110.75215,51.7610674 110.771681,51.7024742 110.810744,51.6503906 C110.849807,51.598307 110.916538,51.5543622 111.010939,51.5185547 C111.105341,51.4827472 111.230665,51.4550782 111.386916,51.4355469 C111.543166,51.4160155 111.741732,51.40625 111.982619,51.40625 C112.223505,51.40625 112.422071,51.4160155 112.578322,51.4355469 C112.734573,51.4550782 112.859897,51.4827472 112.954299,51.5185547 C113.0487,51.5543622 113.115431,51.598307 113.154494,51.6503906 C113.193557,51.7024742 113.213088,51.7610674 113.213088,51.8261719 L113.213088,64.6679688 Z M118.039062,64.6679688 C118.039062,64.7330732 118.019531,64.7900388 117.980469,64.8388672 C117.941406,64.8876956 117.874675,64.9283853 117.780273,64.9609375 C117.685872,64.9934897 117.560548,65.0179036 117.404297,65.0341797 C117.248046,65.0504558 117.04948,65.0585938 116.808594,65.0585938 C116.567707,65.0585938 116.369141,65.0504558 116.212891,65.0341797 C116.05664,65.0179036 115.931316,64.9934897 115.836914,64.9609375 C115.742513,64.9283853 115.675781,64.8876956 115.636719,64.8388672 C115.597656,64.7900388 115.578125,64.7330732 115.578125,64.6679688 L115.578125,51.8261719 C115.578125,51.7610674 115.597656,51.7024742 115.636719,51.6503906 C115.675781,51.598307 115.742513,51.5543622 115.836914,51.5185547 C115.931316,51.4827472 116.05664,51.4550782 116.212891,51.4355469 C116.369141,51.4160155 116.567707,51.40625 116.808594,51.40625 C117.04948,51.40625 117.248046,51.4160155 117.404297,51.4355469 C117.560548,51.4550782 117.685872,51.4827472 117.780273,51.5185547 C117.874675,51.5543622 117.941406,51.598307 117.980469,51.6503906 C118.019531,51.7024742 118.039062,51.7610674 118.039062,51.8261719 L118.039062,64.6679688 Z M128.450975,60.0585938 C128.450975,60.3580744 128.384244,60.5794264 128.25078,60.7226562 C128.117315,60.8658861 127.933398,60.9375 127.699022,60.9375 L122.396287,60.9375 C122.396287,61.3085956 122.440232,61.6455063 122.528123,61.9482422 C122.616014,62.2509781 122.755987,62.508137 122.948045,62.7197266 C123.140103,62.9313162 123.387497,63.0924474 123.690233,63.203125 C123.992969,63.3138026 124.355921,63.3691406 124.7791,63.3691406 C125.20879,63.3691406 125.58639,63.3382165 125.911912,63.2763672 C126.237435,63.2145179 126.519008,63.1461592 126.756639,63.0712891 C126.99427,62.9964189 127.191209,62.9280602 127.347459,62.8662109 C127.50371,62.8043617 127.630662,62.7734375 127.728319,62.7734375 C127.786913,62.7734375 127.83574,62.7848306 127.874803,62.8076172 C127.913866,62.8304038 127.946417,62.8710935 127.972459,62.9296875 C127.998501,62.9882815 128.016405,63.0712885 128.02617,63.1787109 C128.035936,63.2861333 128.040819,63.4212231 128.040819,63.5839844 C128.040819,63.7272143 128.037563,63.8492833 128.031053,63.9501953 C128.024543,64.0511073 128.014777,64.1373694 128.001756,64.2089844 C127.988735,64.2805993 127.969204,64.3408201 127.943162,64.3896484 C127.917121,64.4384768 127.882941,64.4856769 127.840623,64.53125 C127.798305,64.5768231 127.682747,64.6386715 127.493944,64.7167969 C127.305141,64.7949223 127.064258,64.8714189 126.771287,64.9462891 C126.478317,65.0211592 126.143034,65.0862627 125.765428,65.1416016 C125.387822,65.1969404 124.98418,65.2246094 124.554491,65.2246094 C123.779747,65.2246094 123.101043,65.1269541 122.518358,64.9316406 C121.935673,64.7363271 121.449024,64.4401062 121.058397,64.0429688 C120.66777,63.6458313 120.376432,63.1445343 120.184373,62.5390625 C119.992315,61.9335907 119.896287,61.2239624 119.896287,60.4101562 C119.896287,59.6354128 119.997198,58.9371776 120.199022,58.3154297 C120.400846,57.6936818 120.693812,57.1663433 121.077928,56.7333984 C121.462045,56.3004536 121.929162,55.9700532 122.479295,55.7421875 C123.029428,55.5143218 123.649539,55.4003906 124.339647,55.4003906 C125.068817,55.4003906 125.692183,55.5078114 126.209764,55.7226562 C126.727345,55.9375011 127.152145,56.2353497 127.484178,56.6162109 C127.816211,56.9970722 128.060349,57.4479141 128.2166,57.96875 C128.372851,58.4895859 128.450975,59.0559865 128.450975,59.6679688 L128.450975,60.0585938 Z M126.068162,59.3554688 C126.087694,58.6653611 125.949349,58.1233744 125.653123,57.7294922 C125.356898,57.33561 124.899546,57.1386719 124.281053,57.1386719 C123.968551,57.1386719 123.696744,57.197265 123.465623,57.3144531 C123.234502,57.4316412 123.042447,57.5895172 122.889451,57.7880859 C122.736456,57.9866546 122.61927,58.2210273 122.537889,58.4912109 C122.456508,58.7613946 122.409308,59.0494776 122.396287,59.3554688 L126.068162,59.3554688 Z M135.405856,63.8085938 C135.405856,64.0950535 135.387953,64.3147779 135.352145,64.4677734 C135.316338,64.620769 135.269138,64.7281898 135.210544,64.7900391 C135.15195,64.8518883 135.065687,64.9072263 134.951755,64.9560547 C134.837822,65.0048831 134.704359,65.0472003 134.551364,65.0830078 C134.398368,65.1188153 134.232354,65.1464843 134.053317,65.1660156 C133.87428,65.185547 133.693617,65.1953125 133.511325,65.1953125 C133.023041,65.1953125 132.599868,65.1334642 132.241794,65.0097656 C131.883719,64.8860671 131.587498,64.6956393 131.353122,64.4384766 C131.118746,64.1813138 130.946221,63.8574238 130.835544,63.4667969 C130.724866,63.0761699 130.669528,62.613935 130.669528,62.0800781 L130.669528,57.6171875 L129.624606,57.6171875 C129.500908,57.6171875 129.406507,57.5406909 129.341403,57.3876953 C129.276298,57.2346998 129.243747,56.9791685 129.243747,56.6210938 C129.243747,56.4322907 129.251885,56.2727871 129.268161,56.1425781 C129.284437,56.0123691 129.308851,55.9098311 129.341403,55.8349609 C129.373955,55.7600908 129.414645,55.7063804 129.463473,55.6738281 C129.512302,55.6412759 129.569267,55.625 129.634372,55.625 L130.669528,55.625 L130.669528,53.6816406 C130.669528,53.6165361 130.687431,53.557943 130.723239,53.5058594 C130.759046,53.4537758 130.82415,53.4098309 130.918551,53.3740234 C131.012953,53.338216 131.139905,53.3121746 131.299411,53.2958984 C131.458917,53.2796223 131.655855,53.2714844 131.890231,53.2714844 C132.131118,53.2714844 132.331311,53.2796223 132.490817,53.2958984 C132.650323,53.3121746 132.775647,53.338216 132.866794,53.3740234 C132.95794,53.4098309 133.023043,53.4537758 133.062106,53.5058594 C133.101169,53.557943 133.1207,53.6165361 133.1207,53.6816406 L133.1207,55.625 L135.015231,55.625 C135.080336,55.625 135.137301,55.6412759 135.18613,55.6738281 C135.234958,55.7063804 135.275648,55.7600908 135.3082,55.8349609 C135.340752,55.9098311 135.365166,56.0123691 135.381442,56.1425781 C135.397718,56.2727871 135.405856,56.4322907 135.405856,56.6210938 C135.405856,56.9791685 135.373304,57.2346998 135.3082,57.3876953 C135.243095,57.5406909 135.148695,57.6171875 135.024997,57.6171875 L133.1207,57.6171875 L133.1207,61.7089844 C133.1207,62.1842472 133.195569,62.5406889 133.345309,62.7783203 C133.49505,63.0159517 133.761974,63.1347656 134.14609,63.1347656 C134.276299,63.1347656 134.393486,63.1233725 134.497653,63.1005859 C134.60182,63.0777994 134.694593,63.051758 134.775973,63.0224609 C134.857354,62.9931639 134.925713,62.9671225 134.981051,62.9443359 C135.03639,62.9215494 135.086845,62.9101562 135.132419,62.9101562 C135.171481,62.9101562 135.208916,62.9215494 135.244723,62.9443359 C135.280531,62.9671225 135.3082,63.012695 135.327731,63.0810547 C135.347262,63.1494144 135.365166,63.2421869 135.381442,63.359375 C135.397718,63.4765631 135.405856,63.6263012 135.405856,63.8085938 Z" id="wallet" fill="#0C2550"></path>
            </g>
        </g>
    </g>
</svg>