<?xml version="1.0" encoding="UTF-8"?>
<svg width="100px" height="90px" viewBox="0 0 100 90" version="1.1" xmlns="http://www.w3.org/2000/svg" xmlns:xlink="http://www.w3.org/1999/xlink">
    <title>instant_access47a39045f3fa064c805b1c4236f56fa4</title>
    <g id="bluewallet" stroke="none" stroke-width="1" fill="none" fill-rule="evenodd">
        <g id="bluewallet-site-copy-2" transform="translate(-1050.000000, -1021.000000)">
            <g id="Group-6-Copy" transform="translate(158.000000, 981.000000)">
                <g id="Group-5-Copy-2" transform="translate(760.000000, 0.000000)">
                    <g id="instant_access47a39045f3fa064c805b1c4236f56fa4" transform="translate(132.000000, 40.000000)">
                        <rect id="Rectangle" x="0" y="0" width="100" height="90"></rect>
                        <g id="Group-20" transform="translate(4.000000, 13.000000)">
                            <path d="M63.3358754,27.9751507 C63.1416754,27.6392507 62.8582754,27.3593507 62.5147754,27.1645507 C62.1712754,26.9697507 61.7802754,26.8669507 61.3819754,26.8668507 L47.9967754,26.8668507 L50.2891754,9.94435073 C50.3559754,9.45345073 50.2462754,8.95525073 49.9785754,8.53295073 C49.7108754,8.11075073 49.3012754,7.79005073 48.8182754,7.62445073 C48.3352754,7.45895073 47.8080754,7.45845073 47.3247754,7.62335073 C46.8414754,7.78815073 46.4312754,8.10825073 46.1628754,8.53005073 L28.3315754,36.5472507 C28.1230754,36.8749507 28.0087754,37.2504507 28.0004754,37.6350507 C27.9922754,38.0197507 28.0902754,38.3994507 28.2845754,38.7352507 C28.4788754,39.0710507 28.7623754,39.3506507 29.1058754,39.5452507 C29.4492754,39.7399507 29.8402754,39.8425507 30.2384754,39.8425507 L43.4037754,39.8425507 L41.3435754,56.7920507 C41.2840754,57.2813507 41.3992754,57.7756507 41.6700754,58.1931507 C41.9409754,58.6105507 42.3512754,58.9261507 42.8330754,59.0876507 C43.3148754,59.2491507 43.8392754,59.2468507 44.3195754,59.0811507 C44.7997754,58.9153507 45.2070754,58.5962507 45.4739754,58.1763507 L63.2893754,30.1624507 C63.4976754,29.8347507 63.6117754,29.4593507 63.6199754,29.0748507 C63.6281754,28.6904507 63.5300754,28.3108507 63.3358754,27.9751507 Z" id="Path" fill="#0070FF" fill-rule="nonzero"></path>
                            <path d="M47.9967754,26.8668507 L50.2891754,9.94435073 C50.3559754,9.45345073 50.2462754,8.95525073 49.9785754,8.53295073 C49.7108754,8.11075073 49.3012754,7.79005073 48.8182754,7.62445073 C48.3352754,7.45895073 47.8080754,7.45845073 47.3247754,7.62335073 C46.8414754,7.78815073 46.4312754,8.10825073 46.1628754,8.53005073 L28.3315754,36.5472507 C28.1230754,36.8749507 28.0087754,37.2504507 28.0004754,37.6350507 C27.9922754,38.0197507 28.0902754,38.3994507 28.2845754,38.7352507 C28.4788754,39.0710507 28.7623754,39.3506507 29.1058754,39.5452507 C29.4492754,39.7399507 29.8402754,39.8425507 30.2384754,39.8425507 L43.4037754,39.8425507" id="Path" fill="#28ABFA" fill-rule="nonzero"></path>
                            <line x1="5.6754601e-13" y1="32.5" x2="12.6395" y2="32.5" id="Path" stroke="#D1D7E3" stroke-width="5" stroke-linecap="round"></line>
                            <line x1="79.2842" y1="32.5" x2="91.9237" y2="32.5" id="Path" stroke="#D1D7E3" stroke-width="5" stroke-linecap="round"></line>
                            <line x1="78.4619" y1="0" x2="69.5244" y2="8.9375" id="Path" stroke="#D1D7E3" stroke-width="5" stroke-linecap="round"></line>
                            <line x1="22.3994" y1="56.0625" x2="13.4619" y2="65" id="Path" stroke="#D1D7E3" stroke-width="5" stroke-linecap="round"></line>
                            <line x1="78.4618" y1="65" x2="69.5243" y2="56.0625" id="Path" stroke="#D1D7E3" stroke-width="5" stroke-linecap="round"></line>
                            <line x1="22.3994" y1="8.9375" x2="13.4619" y2="1.00000001e-05" id="Path" stroke="#D1D7E3" stroke-width="5" stroke-linecap="round"></line>
                        </g>
                    </g>
                </g>
            </g>
        </g>
    </g>
</svg>